<?xml version="1.0" encoding="UTF-8" standalone="no"?>
<!-- Created with Inkscape (http://www.inkscape.org/) -->

<svg
   xmlns:dc="http://purl.org/dc/elements/1.1/"
   xmlns:cc="http://creativecommons.org/ns#"
   xmlns:rdf="http://www.w3.org/1999/02/22-rdf-syntax-ns#"
   xmlns:svg="http://www.w3.org/2000/svg"
   xmlns="http://www.w3.org/2000/svg"
   xmlns:sodipodi="http://sodipodi.sourceforge.net/DTD/sodipodi-0.dtd"
   xmlns:inkscape="http://www.inkscape.org/namespaces/inkscape"
   width="125.71581mm"
   height="148.27179mm"
   viewBox="0 0 125.71581 148.27179"
   version="1.1"
   id="svg973"
   inkscape:version="0.92.2 5c3e80d, 2017-08-06"
   sodipodi:docname="5minuteApple.svg">
  <title
     id="title824">5 Minute Apple</title>
  <defs
     id="defs967" />
  <sodipodi:namedview
     id="base"
     pagecolor="#ffffff"
     bordercolor="#666666"
     borderopacity="1.0"
     inkscape:pageopacity="0.0"
     inkscape:pageshadow="2"
     inkscape:zoom="0.35"
     inkscape:cx="-182.42681"
     inkscape:cy="28.770087"
     inkscape:document-units="mm"
     inkscape:current-layer="layer1"
     showgrid="false"
     fit-margin-top="0"
     fit-margin-left="0"
     fit-margin-right="0"
     fit-margin-bottom="0"
     inkscape:window-width="1440"
     inkscape:window-height="878"
     inkscape:window-x="-8"
     inkscape:window-y="0"
     inkscape:window-maximized="0" />
  <metadata
     id="metadata970">
    <rdf:RDF>
      <cc:Work
         rdf:about="">
        <dc:format>image/svg+xml</dc:format>
        <dc:type
           rdf:resource="http://purl.org/dc/dcmitype/StillImage" />
        <dc:title>5 Minute Apple</dc:title>
        <cc:license
           rdf:resource="http://creativecommons.org/publicdomain/zero/1.0/" />
        <dc:date>30/1/19</dc:date>
        <dc:creator>
          <cc:Agent>
            <dc:title>Cyanide Cupcake</dc:title>
          </cc:Agent>
        </dc:creator>
        <dc:subject>
          <rdf:Bag>
            <rdf:li>apple</rdf:li>
            <rdf:li>fruit</rdf:li>
            <rdf:li>food</rdf:li>
          </rdf:Bag>
        </dc:subject>
      </cc:Work>
      <cc:License
         rdf:about="http://creativecommons.org/publicdomain/zero/1.0/">
        <cc:permits
           rdf:resource="http://creativecommons.org/ns#Reproduction" />
        <cc:permits
           rdf:resource="http://creativecommons.org/ns#Distribution" />
        <cc:permits
           rdf:resource="http://creativecommons.org/ns#DerivativeWorks" />
      </cc:License>
    </rdf:RDF>
  </metadata>
  <g
     inkscape:label="Layer 1"
     inkscape:groupmode="layer"
     id="layer1"
     transform="translate(-5.9337595,-8.1736341)">
    <path
       style="opacity:1;fill:#8f5902;fill-opacity:1;stroke:none;stroke-width:5.98095751;stroke-linecap:round;stroke-miterlimit:4;stroke-dasharray:none;stroke-dashoffset:0;stroke-opacity:1"
       d="m 68.159194,17.720739 14.60435,-9.5471049 -6.11993,34.4240169 h -5.79167 z"
       id="rect883"
       inkscape:connector-curvature="0"
       sodipodi:nodetypes="ccccc"
       inkscape:export-xdpi="202.03999"
       inkscape:export-ydpi="202.03999" />
    <path
       style="opacity:1;fill:#cc0000;fill-opacity:0.99526068;stroke:none;stroke-width:4.61103773;stroke-linecap:round;stroke-miterlimit:4;stroke-dasharray:none;stroke-dashoffset:0;stroke-opacity:1"
       d="M 49.790629,34.349561 C -34.972417,45.385195 20.027783,185.40466 73.311784,151.02465 118.83382,170.97246 126.24208,121.9703 130.63737,95.852437 134.59283,72.348177 127.73273,35.93368 96.166154,35.341641 c -7.59586,-0.14246 -15.56679,-0.973092 -21.60568,7.25601 -7.12647,-8.848896 -15.633983,-9.437523 -24.769845,-8.24809 z"
       id="path818"
       inkscape:connector-curvature="0"
       sodipodi:nodetypes="scsscs"
       inkscape:export-xdpi="202.03999"
       inkscape:export-ydpi="202.03999" />
    <path
       style="opacity:1;fill:#a40000;fill-opacity:0.55924174;stroke:none;stroke-width:4.61103773;stroke-linecap:round;stroke-miterlimit:4;stroke-dasharray:none;stroke-dashoffset:0;stroke-opacity:1"
       d="m 55.597321,33.902684 c -1.858582,0.401256 -3.839321,0.193168 -5.806692,0.446877 12.428255,2.173304 17.813305,7.527542 24.769845,8.24809 -3.78637,-4.728081 -12.56521,-10.076244 -18.963153,-8.694967 z m 36.181443,1.361651 c -2.11459,-0.01598 -4.22487,0.05572 -6.28205,0.419073 0.76842,0.01831 1.53697,0.03993 2.30015,0.05425 31.566586,0.59204 38.426696,37.006529 34.471236,60.510799 -3.43354,20.402813 -8.7056,54.770503 -32.549446,59.324783 30.976436,2.54335 37.029036,-37.13251 40.828526,-59.709943 3.95546,-23.50426 -2.90464,-59.918766 -34.471206,-60.510806 -1.42424,-0.02672 -2.86183,-0.07732 -4.29721,-0.08816 z M 53.108639,156.31036 c 5.176052,0.70286 14.061565,-1.36493 20.682465,-5.56488 -6.42347,-1.46455 -12.22046,3.99628 -20.682465,5.56488 z"
       id="path818-9"
       inkscape:connector-curvature="0"
       sodipodi:nodetypes="sccscccccscccccc"
       inkscape:export-xdpi="202.03999"
       inkscape:export-ydpi="202.03999" />
    <path
       style="opacity:1;fill:#ffffff;fill-opacity:0.55924174;stroke:none;stroke-width:4.28443146;stroke-linecap:round;stroke-miterlimit:4;stroke-dasharray:none;stroke-dashoffset:0;stroke-opacity:1"
       d="m 23.931143,59.751237 c 3.076912,-5.8907 13.448819,-9.785962 13.448819,-9.785962 -20.03719,13.869062 -12.114193,33.227942 -13.935776,33.023782 -8.359379,-12.46546 -2.589955,-17.34711 0.486957,-23.23782 z"
       id="rect880"
       inkscape:connector-curvature="0"
       sodipodi:nodetypes="zccz"
       inkscape:export-xdpi="202.03999"
       inkscape:export-ydpi="202.03999" />
  </g>
</svg>
