<?xml version="1.0" encoding="UTF-8" standalone="no"?>
<svg
   xmlns:dc="http://purl.org/dc/elements/1.1/"
   xmlns:cc="http://creativecommons.org/ns#"
   xmlns:rdf="http://www.w3.org/1999/02/22-rdf-syntax-ns#"
   xmlns:svg="http://www.w3.org/2000/svg"
   xmlns="http://www.w3.org/2000/svg"
   xmlns:xlink="http://www.w3.org/1999/xlink"
   xmlns:sodipodi="http://sodipodi.sourceforge.net/DTD/sodipodi-0.dtd"
   xmlns:inkscape="http://www.inkscape.org/namespaces/inkscape"
   id="svg6958"
   viewBox="0 0 223.49353 159.25418"
   version="1.1"
   inkscape:version="0.91+devel r"
   sodipodi:docname="cherries-2.svg"
   width="223.49353"
   height="159.25418">
  <title
     id="title4328">Cherries</title>
  <sodipodi:namedview
     pagecolor="#ffffff"
     bordercolor="#666666"
     borderopacity="1"
     objecttolerance="10"
     gridtolerance="10"
     guidetolerance="10"
     inkscape:pageopacity="0"
     inkscape:pageshadow="2"
     inkscape:window-width="1855"
     inkscape:window-height="1056"
     id="namedview178"
     showgrid="false"
     fit-margin-top="0"
     fit-margin-left="0"
     fit-margin-right="0"
     fit-margin-bottom="0"
     inkscape:snap-global="false"
     inkscape:zoom="1"
     inkscape:cx="92.9443"
     inkscape:cy="132.06261"
     inkscape:window-x="65"
     inkscape:window-y="24"
     inkscape:window-maximized="1"
     inkscape:current-layer="svg6958" />
  <defs
     id="defs6960">
    <linearGradient
       id="linearGradient10833-9-9-8-4-0-3-61"
       y2="152.7"
       gradientUnits="userSpaceOnUse"
       y1="156.63"
       x2="721.83002"
       x1="701.37">
      <stop
         id="stop5042-3-6-1-3-7-0-6"
         stop-color="#800000"
         offset="0" />
      <stop
         id="stop5044-2-3-9-5-3-2-7"
         stop-color="#501616"
         offset="1" />
    </linearGradient>
    <linearGradient
       inkscape:collect="always"
       xlink:href="#linearGradient10833-9-9-8-4-0-3-61"
       id="linearGradient4351"
       gradientUnits="userSpaceOnUse"
       x1="701.37"
       y1="156.63"
       x2="721.83002"
       y2="152.7"
       gradientTransform="matrix(2.0490329,-0.35445467,0.35445467,2.0490329,-1404.2811,56.896522)" />
    <linearGradient
       inkscape:collect="always"
       xlink:href="#linearGradient10833-9-9-8-4-0-3-61"
       id="linearGradient4351-8"
       gradientUnits="userSpaceOnUse"
       x1="701.37"
       y1="156.63"
       x2="721.83002"
       y2="152.7"
       gradientTransform="matrix(1.9195099,0.79978467,-0.79978467,1.9195099,-1197.1375,-746.79511)" />
  </defs>
  <g
     id="g4311"
     transform="matrix(-0.23518472,0.40407195,-0.54760094,-0.17354161,195.47291,2.1003301)">
    <path
       inkscape:connector-curvature="0"
       style="fill:#6a9c1c;fill-opacity:1;stroke-width:0.30463883"
       d="m 126.15869,-55.162125 c 1.05367,4.524564 2.21285,6.501809 3.54365,6.044548 2.96528,-1.018717 4.59746,2.353387 5.08001,10.495695 0.28098,4.740471 1.16077,7.060201 2.50314,6.599017 1.34155,-0.460876 2.51309,2.637596 3.32998,8.80685 0.88399,6.674906 1.9802,9.427528 3.66996,9.215518 1.58061,-0.198356 1.89884,3.658139 0.92467,11.2084973 -1.15688,8.967054 -0.83826,11.450295 1.44169,11.236142 2.22494,-0.20898 2.1043,2.3282767 -0.50353,10.5812987 -1.94591,6.158549 -2.49339,10.964626 -1.2651,11.107166 1.23038,0.142725 0.18859,5.84528 -2.41382,13.210511 -2.5184,7.127675 -4.2639,14.118517 -3.87919,15.535099 0.38472,1.416716 -1.41307,6.860523 -3.99529,12.097558 -4.31767,8.756927 -8.20871,13.67528 -29.26012,36.984735 -5.491552,6.08055 -13.496566,18.46845 -13.125106,21.89625 1.44454,13.32694 -2.365496,-4.36115 -25.543046,-36.130493 -10.91953,-14.967177 -26.76856,-45.865683 -23.7223,-46.247658 0.96857,-0.121552 1.35069,-3.70612 0.84915,-7.96566 -1.20823,-10.258958 -0.37863,-27.708393 1.37465,-28.919029 1.795,-1.2394397 4.4256,-20.733589 3.06402,-22.705469 -0.58811,-0.851724 0.45545,-2.028098 2.42333,-2.731721 2.55401,-0.913172 3.63868,-3.38426 4.15518,-9.466213 0.41706,-4.911858 1.75851,-8.548781 3.32655,-9.02029 1.47206,-0.442564 3.36654,-4.390118 4.30767,-8.976218 0.92417,-4.502352 2.62595,-8.30478 3.78186,-8.44989 1.15592,-0.145042 2.99462,-3.277425 4.08611,-6.961097 1.09663,-3.700842 3.08192,-6.834857 4.4371,-7.00502 1.34898,-0.169284 3.09221,-2.265397 3.87386,-4.658007 0.78158,-2.3926 2.76007,-4.75267 4.3968,-5.24478 1.63668,-0.49207 5.32222,-5.1291 8.18986,-10.304492 6.14566,-11.09089 7.43545,-11.01155 15.695252,0.96504 2.76904,4.01573 5.90883,7.250882 6.97678,7.189832 1.068,-0.061 2.97785,3.64684 4.24434,8.23991 1.66942,6.054815 2.87501,8.116633 4.38505,7.499323 1.5298,-0.625323 2.49832,0.933668 3.6484,5.872633 z"
       id="path4645"
       sodipodi:nodetypes="cccccccccccccccccccccccccccccccccccc" />
    <path
       sodipodi:nodetypes="cccccccccccccccccccccccccccccccccccc"
       inkscape:connector-curvature="0"
       id="path4381"
       d="m 114.96138,-73.013767 c 6.16942,19.711806 24.41979,36.576096 20.12579,58.753476 -1.74839,24.555227 -23.05188,41.019374 -29.29236,64.022265 -4.53026,6.356383 -5.25049,30.593289 4.8415,15.842659 14.4907,-21.110117 23.91083,-45.39337 29.29915,-70.3735723 1.8523,27.9918393 -11.95934,53.6997013 -26.35578,76.6323893 -3.65433,8.737344 -12.20789,22.099132 -9.86689,29.12964 16.86181,-14.194521 24.71051,-35.96255 32.16514,-56.102501 4.24881,-9.699806 4.43817,-20.573822 8.5916,-30.283201 1.97124,24.23688 -11.12158,45.932634 -22.16972,66.441412 -10.21383,11.162115 -12.58731,29.46841 -26.794455,36.67441 -8.61442,-6.25147 -6.856117,-16.72387 -6.822317,-25.829749 -0.10328,-11.853772 3.739457,-26.459859 4.920807,-38.369997 1.92607,-37.762909 7.403775,-75.36556 6.645725,-113.24452 -6.556475,10.874317 0.35363,30.29762 -14.974485,34.804739 -9.3544,6.95031 -3.12675,18.9835177 -2.21944,28.1851497 2.08895,6.512666 -5.20523,13.4010323 -5.67873,3.053138 -15.42461,-5.80323005 -6.16202,39.5084223 -0.49179,49.7480243 -14.69694,-0.22109 -10.86791,20.288107 -1.77767,26.072057 8.68663,5.525854 -0.84713,15.00086 -4.97509,4.769496 -7.3388,-9.496373 -15.718,-18.663264 -19.1295,-30.540829 -8.22013,-23.366826 -1.52498,-48.4234963 4.98547,-71.33228 7.97409,-24.215194 19.64483,-47.592621 35.71363,-67.416976 16.233515,-12.01662 20.566265,11.34741 16.212045,22.657715 -3.45836,5.524058 4.39239,18.533208 4.19303,6.096532 0.0267,-6.43135 -5.43473,-15.800457 2.85429,-19.389477 z m 12.36897,37.820216 c -4.18652,23.245296 -19.92781,42.0678047 -26.61662,64.441209 8.88798,9.212615 13.97383,-11.694356 18.80021,-17.436781 8.04383,-14.5095353 12.61939,-31.248667 11.12922,-47.871646 -1.53192,-4.987942 -2.30355,-1.527519 -3.31281,0.867218 z m -9.38389,-11.481023 c -4.6278,13.950163 -10.56399,27.64329 -12.44927,42.3341497 12.0192,-11.9643747 19.12897,-30.2463197 14.29874,-47.0177917 -2.17113,-1.689335 -1.31958,3.787425 -1.84947,4.683642 z"
       style="opacity:0.08299997;fill:#000000;fill-opacity:1;stroke-width:0.30463883" />
  </g>
  <path
     id="path14335-4-8-1-7-8-1-9-8-0"
     d="M 150.75624,33.789027 C 119.29236,16.024787 96.640618,17.263763 89.980817,5.0578471 l -3.489882,6.1686019 c 3.424871,4.911389 31.967005,6.25053 64.265305,22.562578 z"
     inkscape:connector-curvature="0"
     style="fill:#19661e;fill-opacity:1;stroke-width:2.98186541"
     sodipodi:nodetypes="cccc" />
  <path
     id="path14335-4-8-1-7-8-1-9"
     d="m 94.657135,114.51418 c 0,0 -8.361357,-45.435901 -10.960246,-69.146107 C 82.299047,32.615007 79.183602,4.5512811 79.183602,4.5512811 l 9.812936,2.628879 c 0,0 -1.25475,25.7718189 -0.594624,37.2789369 1.352082,23.569597 6.255264,70.055943 6.255264,70.055943 z"
     inkscape:connector-curvature="0"
     style="fill:#483737;stroke-width:2.98186541"
     sodipodi:nodetypes="ccccccc" />
  <path
     id="path14339-9-6-0-3-5-83-84-9"
     d="M 32.019056,79.965212 C 29.578928,79.334133 27.027896,79.206582 24.423999,79.316745 7.1095466,80.056497 -0.58166545,97.92904 0.03417455,117.13801 c 0.539785,16.84389 12.79557345,29.12044 26.21014245,33.02538 13.414722,3.90511 30.344349,0.12479 39.842153,-13.79791 10.829648,-15.8778 13.933298,-35.08644 -0.27935,-45.002424 -2.137298,-1.491426 -4.358749,-2.752224 -6.756255,-3.52939 -0.342647,-0.110556 -0.686316,-0.210495 -1.036233,-0.30155 -4.308073,-1.115058 -8.99514,0.246877 -13.351191,-0.63841 -4.150716,-1.591121 -7.374177,-5.255759 -11.60779,-6.627379 -0.344107,-0.111163 -0.687738,-0.211086 -1.036211,-0.301765 z"
     style="fill:url(#linearGradient4351-8);stroke-width:2.07946491"
     inkscape:connector-curvature="0" />
  <path
     id="path14339-9-6-0-3-5-83-84"
     d="m 76.553512,95.463691 c -2.397959,0.776064 -4.619468,2.036593 -6.758103,3.526108 -14.216846,9.910541 -11.122817,29.120161 -0.30078,45.002461 9.489388,13.92693 26.417639,17.71539 39.834001,13.81663 13.41659,-3.8987 25.6779,-16.16913 26.22706,-33.01396 0.62468,-19.20925 -7.05789,-37.086134 -24.37172,-37.832728 -2.60379,-0.112493 -5.15492,0.0148 -7.59525,0.644706 -0.3485,0.09046 -0.69216,0.190429 -1.03633,0.301247 -4.234092,1.369407 -7.459589,5.032689 -11.610947,6.621758 -4.35661,0.88321 -9.042686,-0.480962 -13.351537,0.63197 -0.35005,0.09073 -0.69367,0.190692 -1.036419,0.301053 z"
     style="fill:url(#linearGradient4351);stroke-width:2.07946491"
     inkscape:connector-curvature="0" />
  <path
     id="path14341-9-3-9-6-1-0-00"
     d="m 79.623715,101.62239 c -0.277445,0.0716 -0.573602,0.16233 -0.845249,0.24942 -1.900645,0.61203 -3.623447,1.61046 -5.319505,2.78178 -15.666017,24.47445 7.296902,52.65628 31.220699,46.05187 0.53218,-0.15389 1.05367,-0.3454 1.58024,-0.53192 -8.607653,-0.0425 -17.559386,-3.78565 -23.182309,-11.9685 -8.5508,-12.44279 -10.94967,-27.47769 0.32616,-35.27181 0.848072,-0.58565 1.709622,-1.11645 2.599707,-1.58734 -2.15206,-0.0703 -4.32154,-0.25356 -6.379912,0.27626 z"
     inkscape:connector-curvature="0"
     style="opacity:0.397;fill:#ffffff;stroke-width:2.07946491"
     sodipodi:nodetypes="cccccccccc" />
  <metadata
     id="metadata175">
    <rdf:RDF>
      <cc:Work>
        <dc:format>image/svg+xml</dc:format>
        <dc:type
           rdf:resource="http://purl.org/dc/dcmitype/StillImage" />
        <cc:license
           rdf:resource="http://creativecommons.org/publicdomain/zero/1.0/" />
        <dc:publisher>
          <cc:Agent
             rdf:about="http://openclipart.org/">
            <dc:title>Openclipart</dc:title>
          </cc:Agent>
        </dc:publisher>
        <dc:title>Cherries</dc:title>
        <dc:date>2015-10-12</dc:date>
        <dc:description>Cherries made from the apple in the parent work.</dc:description>
        <dc:source>https://openclipart.org/detail/184882/apple-cinnamon-by-ephemeralwaves-184882</dc:source>
        <dc:creator>
          <cc:Agent>
            <dc:title>Martin Owens</dc:title>
          </cc:Agent>
        </dc:creator>
        <dc:subject>
          <rdf:Bag>
            <rdf:li>food</rdf:li>
            <rdf:li>cherry</rdf:li>
            <rdf:li>cherries</rdf:li>
            <rdf:li>two</rdf:li>
            <rdf:li>pair</rdf:li>
            <rdf:li>red</rdf:li>
            <rdf:li>leaf</rdf:li>
            <rdf:li>sweet</rdf:li>
            <rdf:li>ripe</rdf:li>
          </rdf:Bag>
        </dc:subject>
      </cc:Work>
      <cc:License
         rdf:about="http://creativecommons.org/publicdomain/zero/1.0/">
        <cc:permits
           rdf:resource="http://creativecommons.org/ns#Reproduction" />
        <cc:permits
           rdf:resource="http://creativecommons.org/ns#Distribution" />
        <cc:permits
           rdf:resource="http://creativecommons.org/ns#DerivativeWorks" />
      </cc:License>
    </rdf:RDF>
  </metadata>
  <path
     id="path14335-4-8-1-7-8-1-9-8"
     d="m 37.081457,105.75347 c 0,0 17.311348,-42.832818 27.834243,-64.23835 C 70.575699,30.00169 83.714746,7.3722741 83.714746,7.3722741 l 3.489882,6.1686019 c 0,0 -12.215921,19.664303 -17.830327,29.730482 C 57.874499,63.88952 37.081032,105.75422 37.081032,105.75422 Z"
     inkscape:connector-curvature="0"
     style="fill:#483737;stroke-width:2.98186541" />
  <path
     id="path14341-9-3-9-6-1-0-00-2"
     d="m 31.307273,86.809855 c -0.272584,-0.08834 -0.571185,-0.170634 -0.847166,-0.242822 -1.932417,-0.502798 -3.921962,-0.584098 -5.981663,-0.505129 -25.6292324,9.182309 -21.8878014,48.110146 1.651833,55.612756 0.5317,0.15553 1.074557,0.27358 1.619028,0.39858 -7.242167,-4.65238 -12.789984,-12.61268 -13.147124,-22.53482 -0.543587,-15.08786 5.495338,-29.064065 19.192448,-29.594872 1.029885,-0.03946 2.041724,-0.02539 3.045513,0.05456 -1.778643,-1.213563 -3.511437,-2.53176 -5.53288,-3.188546 z"
     inkscape:connector-curvature="0"
     style="opacity:0.397;fill:#ffffff;stroke-width:2.07946491"
     sodipodi:nodetypes="cccccccccc" />
  <path
     style="opacity:0.397;fill:#ffffff;fill-opacity:1;fill-rule:evenodd;stroke:none;stroke-width:2.07946491;stroke-linecap:butt;stroke-linejoin:miter;stroke-miterlimit:4;stroke-dasharray:none;stroke-dashoffset:0;stroke-opacity:1"
     d="m 99.633777,103.31391 c 2.011213,-4.097606 3.680183,-8.233715 9.961913,-11.850888 3.17142,-1.050334 7.48557,1.45729 9.7551,3.009257 -9.59561,-2.701715 -15.67939,2.906526 -19.717013,8.841631 z"
     id="path4854"
     inkscape:connector-curvature="0"
     sodipodi:nodetypes="cccc" />
  <path
     id="path14335-4-8-1-7-8-1-9-8-1"
     d="M 86.049201,14.285863 C 82.216845,0.94793315 79.889151,18.099692 76.56279,2.1224721 l 15.344756,0.248189 C 92.167428,19.77093 87.824967,-0.67694085 86.049201,14.285863 Z"
     inkscape:connector-curvature="0"
     style="fill:#b77b30;fill-opacity:1;stroke-width:0.81123334"
     sodipodi:nodetypes="cccc" />
  <path
     id="path14335-4-8-1-7-8-1-9-8-1-1"
     d="M 85.707086,12.382011 C 79.550172,-1.5933499 84.988788,16.080856 76.492848,1.9760511 l 15.253,-0.424385 C 91.995263,17.39599 82.839767,-2.8483949 85.707086,12.382011 Z"
     inkscape:connector-curvature="0"
     style="fill:#786752;fill-opacity:1;stroke-width:0.81123334"
     sodipodi:nodetypes="cccc" />
  <ellipse
     style="color:#000000;clip-rule:nonzero;display:inline;overflow:visible;visibility:visible;opacity:1;isolation:auto;mix-blend-mode:normal;color-interpolation:sRGB;color-interpolation-filters:linearRGB;solid-color:#000000;solid-opacity:1;fill:#483737;fill-opacity:1;fill-rule:nonzero;stroke:none;stroke-width:2.98186541;stroke-linecap:butt;stroke-linejoin:miter;stroke-miterlimit:4;stroke-dasharray:none;stroke-dashoffset:0;stroke-opacity:1;marker:none;color-rendering:auto;image-rendering:auto;shape-rendering:auto;text-rendering:auto;enable-background:accumulate"
     id="path4900"
     cx="84.268463"
     cy="1.8924193"
     rx="7.7730522"
     ry="1.8924193" />
</svg>
