<?xml version="1.0" encoding="utf-8"?>
<!DOCTYPE svg PUBLIC "-//W3C//DTD SVG 1.1//EN" "http://www.w3.org/Graphics/SVG/1.1/DTD/svg11.dtd">
<svg version="1.1" id="Ebene_1" xmlns="http://www.w3.org/2000/svg" xmlns:xlink="http://www.w3.org/1999/xlink" x="0px" y="0px"
	 viewBox="-758.6222 -625.2409 1885.2856 1600" enable-background="new -758.6222 -625.2409 1885.2856 1600" xml:space="preserve">
<g>
	<path opacity="0.56" fill="#D6D9DE00" enable-background="new    " d="M1126.6398,539.6483
		c0,139.473-230.6019,367.0679-658.3465,367.0679c-427.7525,0-870.7272-183.1738-870.7272-322.6467
		c0-139.4416,434.9016-247.9929,862.662-247.9929c427.6899-0.0782,666.4353,64.0516,666.4353,203.509L1126.6398,539.6483z"/>

		<radialGradient id="SVGID_1_" cx="-578.3256" cy="1685.5936" r="735.3152" gradientTransform="matrix(-0.0725 0.9974 0.9974 0.0725 -1257.1926 512.2664)" gradientUnits="userSpaceOnUse">
		<stop  offset="0.2191" style="stop-color:#EA2D2E"/>
		<stop  offset="0.8202" style="stop-color:#B3282E"/>
	</radialGradient>
	<path fill="url(#SVGID_1_)" d="M991.8807-67.59c5.0316-16.4366,8.5185-32.2428,10.9045-48.6026
		c27.4827-172.7516-107.0009-357.7812-304.0811-418.0352c-190.9649-58.3105-385.5865,14.6974-457.257,164.3968l-0.6117-0.1988
		C106.8827-83.8643,222.4905,129.3229,302.4455,232.205c31.1606,40.2868,68.0405,59.1053,68.0405,59.1053
		c233.084,61.1208,418.3952-65.2842,511.1607-177.5517C926.0445,70.2223,970.6769,2.1771,991.897-67.5123L991.8807-67.59z"/>

		<radialGradient id="SVGID_2_" cx="382.2126" cy="479.9574" r="47.924" gradientTransform="matrix(0.8288 0.4722 0.5387 -0.9455 -17.8729 242.3369)" gradientUnits="userSpaceOnUse">
		<stop  offset="0.2191" style="stop-color:#932F25"/>
		<stop  offset="0.4026" style="stop-color:#993026"/>
		<stop  offset="0.6549" style="stop-color:#AB3129"/>
		<stop  offset="0.9382" style="stop-color:#C7342D"/>
	</radialGradient>
	<path fill="url(#SVGID_2_)" d="M587.3683-46.9963c-8.4034,14.4907-25.1963,20.3978-37.9509,13.0688
		c-12.8315-7.2491-16.28-25.0357-8.0824-39.4537c8.2734-14.4178,25.2722-20.3979,37.951-13.1948
		c12.7634,7.3605,16.4436,25.0569,8.0652,39.6212L587.3683-46.9963z"/>
	<path fill="#F9C625" d="M581.8872-53.0257c6.0256-19.3314-4.8787-33.6687-4.8787-33.6687
		c-23.5214,1.3458-29.8223,20.7572-29.8223,20.7572c-3.3264,9.6618,1.6594,20.2413,11.4393,23.5292
		c9.3134,3.2881,19.3767-1.6249,22.8566-10.6939l0.3915,0.1566L581.8872-53.0257z"/>
	<path opacity="0.52" fill="#C0752E" enable-background="new    " d="M574.4485-86.3044c0,0-45.6286,16.5211-17.7865,42.4245
		c0-0.0783-7.2821-19.4974,17.7748-42.4401L574.4485-86.3044z"/>

		<radialGradient id="SVGID_3_" cx="485.761" cy="636.6425" r="47.8653" gradientTransform="matrix(0.8288 0.4722 0.5387 -0.9455 -17.8729 242.3369)" gradientUnits="userSpaceOnUse">
		<stop  offset="0.2191" style="stop-color:#932F25"/>
		<stop  offset="0.4026" style="stop-color:#993026"/>
		<stop  offset="0.6549" style="stop-color:#AB3129"/>
		<stop  offset="0.9382" style="stop-color:#C7342D"/>
	</radialGradient>
	<path opacity="0.9" fill="url(#SVGID_3_)" enable-background="new    " d="M757.5986-146.2843
		c-8.2045,14.4563-25.4328,20.3251-37.9127,13.1142c-12.7163-7.2109-16.4866-24.8407-8.1207-39.3769
		c8.1592-14.4985,25.2722-20.3595,37.9431-13.1909c12.8417,7.2821,16.2869,24.9002,8.0651,39.4646L757.5986-146.2843z"/>
	<path opacity="0.9" fill="#F9C625" enable-background="new    " d="M752.1176-152.1571
		c5.9415-19.4152-4.9169-33.9129-4.9169-33.9129c-23.5676,1.6211-29.8679,21.036-29.8679,21.036
		c-3.3264,9.5851,1.7052,20.08,11.4854,23.2919c9.3517,3.2078,19.4919-1.5064,23.0625-10.6179l0.1565,0.2349L752.1176-152.1571z"/>
	<path opacity="0.9" fill="#C0752E" enable-background="new    " d="M744.7571-185.5923c0,0-45.7585,16.6315-17.9086,42.5771
		c0.0783,0-7.1255-19.654,17.9313-42.5967L744.7571-185.5923z"/>

		<radialGradient id="SVGID_4_" cx="32.2794" cy="926.9772" r="47.8637" gradientTransform="matrix(0.6458 0.7019 0.8009 -0.7368 -315.7344 371.0844)" gradientUnits="userSpaceOnUse">
		<stop  offset="0.2191" style="stop-color:#932F25"/>
		<stop  offset="0.4026" style="stop-color:#993026"/>
		<stop  offset="0.6549" style="stop-color:#AB3129"/>
		<stop  offset="0.9382" style="stop-color:#C7342D"/>
	</radialGradient>
	<path opacity="0.43" fill="url(#SVGID_4_)" enable-background="new    " d="M480.9549-295.5295
		c-12.3569,11.2482-30.1434,11.6037-40.2445,0.91c-10.0706-10.7745-7.9603-28.6369,4.5192-40.0503
		c12.1511-11.2905,30.2123-11.6037,40.0081-0.91c9.8661,10.6492,7.9085,28.5805-4.3067,40.0128L480.9549-295.5295z"/>
	<path opacity="0.43" fill="#F9C625" enable-background="new    " d="M477.5878-303.0465
		c11.7148-16.5626,5.5363-33.5121,5.5363-33.5121c-22.9709-5.7886-34.7696,10.7361-34.7696,10.7361
		c-6.0257,8.3119-4.4045,19.7629,3.8769,25.7468c7.7997,5.9798,19.0174,4.5919,25.1963-3.0549l0.0782,0.0783L477.5878-303.0465z"/>
	<path opacity="0.43" fill="#C0752E" enable-background="new    " d="M480.6416-336.795c0,0-48.7255,1.8199-29.8302,34.9379
		c0,0-1.1745-20.8286,29.8333-34.923L480.6416-336.795z"/>

		<radialGradient id="SVGID_5_" cx="508.2966" cy="402.9856" r="47.8261" gradientTransform="matrix(0.8288 0.4722 0.5387 -0.9455 -17.8729 242.3369)" gradientUnits="userSpaceOnUse">
		<stop  offset="0.2191" style="stop-color:#932F25"/>
		<stop  offset="0.4026" style="stop-color:#993026"/>
		<stop  offset="0.6549" style="stop-color:#AB3129"/>
		<stop  offset="0.9382" style="stop-color:#C7342D"/>
	</radialGradient>
	<path opacity="0.9" fill="url(#SVGID_5_)" enable-background="new    " d="M650.4022,85.2571
		c-8.1976,14.4985-25.0741,20.4401-37.951,13.1142c-12.7086-7.2529-16.3183-24.8407-8.037-39.3385
		c8.3197-14.4563,25.4327-20.4401,38.0653-13.1909c12.7634,7.2038,16.3653,24.822,7.9869,39.3863L650.4022,85.2571z"/>
	<path opacity="0.9" fill="#F9C625" enable-background="new    " d="M644.921,79.3061c6.1404-19.4496-4.6645-33.7531-4.6645-33.7531
		c-23.7736,1.5102-29.9523,21.0016-29.9523,21.0016c-3.4028,9.6618,1.667,20.08,11.4854,23.3687
		c9.2295,3.0893,19.4073-1.6632,22.9788-10.6593l0.2349,0.0783L644.921,79.3061z"/>
	<path opacity="0.9" fill="#C0752E" enable-background="new    " d="M637.7172,46.0275c0,0-45.9496,16.7161-17.9086,42.3478
		c0.0783,0-7.1255-19.4191,17.9313-42.3619L637.7172,46.0275z"/>

		<radialGradient id="SVGID_6_" cx="411.2867" cy="288.5841" r="48.0391" gradientTransform="matrix(0.8288 0.4722 0.5387 -0.9455 -17.8729 242.3369)" gradientUnits="userSpaceOnUse">
		<stop  offset="0.2191" style="stop-color:#932F25"/>
		<stop  offset="0.4026" style="stop-color:#993026"/>
		<stop  offset="0.6549" style="stop-color:#AB3129"/>
		<stop  offset="0.9382" style="stop-color:#C7342D"/>
	</radialGradient>
	<path opacity="0.9" fill="url(#SVGID_6_)" enable-background="new    " d="M508.4391,147.5861
		c-8.3964,14.4641-25.3568,20.3211-37.9893,13.1948c-12.7853-7.2529-16.5172-24.8753-8.2734-39.4192
		c8.2734-14.533,25.4257-20.3556,38.1037-13.1063c12.685,7.0472,16.287,24.7437,8.1434,39.2297L508.4391,147.5861z"/>
	<path opacity="0.9" fill="#F9C625" enable-background="new    " d="M502.9579,141.6351c6.0562-19.3729-4.871-33.6687-4.871-33.6687
		c-23.6898,1.4605-29.9524,20.8755-29.9524,20.8755c-3.2422,9.5466,1.9117,20.1222,11.4933,23.4071
		c9.1912,3.2499,19.4073-1.5026,23.1392-10.7322l0.1566,0.0783L502.9579,141.6351z"/>
	<path opacity="0.9" fill="#C0752E" enable-background="new    " d="M495.5975,108.4347c0,0-45.9496,16.5211-17.9086,42.4284
		c0.0783,0-7.2038-19.5757,17.9313-42.4401L495.5975,108.4347z"/>

		<radialGradient id="SVGID_7_" cx="610.412" cy="370.7247" r="41.4076" gradientTransform="matrix(0.8288 0.4722 0.5387 -0.9455 -17.8729 242.3369)" gradientUnits="userSpaceOnUse">
		<stop  offset="0.2191" style="stop-color:#932F25"/>
		<stop  offset="0.4026" style="stop-color:#993026"/>
		<stop  offset="0.6549" style="stop-color:#AB3129"/>
		<stop  offset="0.9382" style="stop-color:#C7342D"/>
	</radialGradient>
	<path opacity="0.43" fill="url(#SVGID_7_)" enable-background="new    " d="M713.6708,166.0656
		c-7.0962,12.5559-21.747,17.5876-32.7972,11.3673c-11.011-6.1786-13.9473-21.6249-7.0045-34.1087
		c7.1191-12.5903,21.9389-17.5837,32.7893-11.2481c10.9623,6.2642,14.1728,21.455,6.9689,34.0618L713.6708,166.0656z"/>
	<path opacity="0.43" fill="#F9C625" enable-background="new    " d="M708.9727,160.9759
		c5.1844-16.8766-4.2746-29.2336-4.2746-29.2336c-20.4088,1.342-25.6317,17.9815-25.6317,17.9815
		c-3.0052,8.4763,1.3076,17.5108,9.6657,20.3979c8.1207,2.7758,16.8766-1.3038,19.9274-9.2257h0.3915L708.9727,160.9759z"/>
	<path opacity="0.43" fill="#C0752E" enable-background="new    " d="M702.4734,132.3171c0,0-39.4575,14.1774-15.1711,36.5627
		c0,0-6.4209-16.7568,15.1908-36.5674L702.4734,132.3171z"/>

		<radialGradient id="SVGID_8_" cx="339.9132" cy="183.6579" r="38.2856" gradientTransform="matrix(0.8288 0.4722 0.5387 -0.9455 -17.8729 242.3369)" gradientUnits="userSpaceOnUse">
		<stop  offset="0.2191" style="stop-color:#932F25"/>
		<stop  offset="0.4026" style="stop-color:#993026"/>
		<stop  offset="0.6549" style="stop-color:#AB3129"/>
		<stop  offset="0.9382" style="stop-color:#C7342D"/>
	</radialGradient>
	<path opacity="0.43" fill="url(#SVGID_8_)" enable-background="new    " d="M386.7566,216.2577
		c-6.6909,11.6077-20.1951,16.2839-30.4191,10.6179c-10.2466-5.9415-13.1298-20.0838-6.4615-31.4895
		c6.5227-11.8065,20.2029-16.601,30.304-10.5412c10.1794,5.6378,13.1548,19.7323,6.5774,31.3994L386.7566,216.2577z"/>
	<path opacity="0.43" fill="#F9C625" enable-background="new    " d="M382.215,211.4812
		c5.0316-15.5266-3.8769-26.9776-3.8769-26.9776c-18.788,1.1929-23.8652,16.6393-23.8652,16.6393
		c-2.6382,7.685,1.5217,16.1649,9.2522,18.7003c7.4785,2.6955,15.4843-1.1891,18.4207-8.4763l0.1566,0.1566L382.215,211.4812z"/>
	<path opacity="0.43" fill="#C0752E" enable-background="new    " d="M376.4206,184.8583c0,0-36.5212,13.187-14.1618,33.8291
		c0,0.0783-5.8727-15.4257,14.1728-33.8269L376.4206,184.8583z"/>

		<radialGradient id="SVGID_9_" cx="203.8063" cy="287.3315" r="43.6283" gradientTransform="matrix(0.8288 0.4722 0.5387 -0.9455 -17.8729 242.3369)" gradientUnits="userSpaceOnUse">
		<stop  offset="0.2191" style="stop-color:#932F25"/>
		<stop  offset="0.4026" style="stop-color:#993026"/>
		<stop  offset="0.6549" style="stop-color:#AB3129"/>
		<stop  offset="0.9382" style="stop-color:#C7342D"/>
	</radialGradient>
	<path opacity="0.43" fill="url(#SVGID_9_)" enable-background="new    " d="M333.1191,52.2133
		c-7.5015,13.2363-23.0093,18.6196-34.5942,12.0015c-11.4471-6.4959-14.7428-22.772-7.3485-35.9629
		c7.6009-13.1948,23.1777-18.463,34.6169-11.9255c11.6672,6.5774,14.9559,22.7078,7.3605,35.8627L333.1191,52.2133z"/>
	<path opacity="0.43" fill="#F9C625" enable-background="new    " d="M328.186,46.7322c5.4904-17.626-4.3816-30.6555-4.3816-30.6555
		c-21.5027,1.342-27.2298,19.0057-27.2298,19.0057c-2.9822,8.7214,1.6441,18.2258,10.2623,21.2772
		c8.6947,2.8905,17.8092-1.4261,21.036-9.708h0.3132L328.186,46.7322z"/>
	<path opacity="0.43" fill="#C0752E" enable-background="new    " d="M321.4521,16.5073c0,0-41.5373,15.1751-16.0583,38.6237
		c0,0.0783-6.7341-17.6964,16.0521-38.6032L321.4521,16.5073z"/>

		<radialGradient id="SVGID_10_" cx="640.7254" cy="290.4619" r="43.6181" gradientTransform="matrix(0.8951 0.3297 0.3762 -1.0211 115.2505 143.8518)" gradientUnits="userSpaceOnUse">
		<stop  offset="0.2191" style="stop-color:#932F25"/>
		<stop  offset="0.4026" style="stop-color:#993026"/>
		<stop  offset="0.6549" style="stop-color:#AB3129"/>
		<stop  offset="0.9382" style="stop-color:#C7342D"/>
	</radialGradient>
	<path opacity="0.43" fill="url(#SVGID_10_)" enable-background="new    " d="M822.4333,39.6066
		c-5.2228,14.3372-19.683,22.061-32.1926,17.4271c-12.4415-4.5575-18.276-19.8012-13.0757-34.2231
		c5.261-14.1845,19.5599-22.0689,32.162-17.3927c12.5285,4.5416,18.3228,19.8106,13.0767,34.14L822.4333,39.6066z"/>
	<path opacity="0.43" fill="#F9C625" enable-background="new    " d="M816.639,35.065c2.6611-18.3409-9.3517-29.5468-9.3517-29.5468
		c-20.9906,4.8672-23.7587,23.2082-23.7587,23.2082c-1.5064,9.1536,4.6722,17.8288,13.7869,19.4113
		c8.9085,1.5446,17.3049-4.3931,19.1324-13.1142h0.1566L816.639,35.065z"/>
	<path opacity="0.43" fill="#C0752E" enable-background="new    " d="M804.9719,6.3279c0,0-38.7772,21.6249-9.589,40.7613
		c0-0.0783-9.3965-16.5219,9.5529-40.7958L804.9719,6.3279z"/>

		<radialGradient id="SVGID_11_" cx="270.241" cy="196.0281" r="43.6377" gradientTransform="matrix(0.8951 0.3297 0.3762 -1.0211 115.2505 143.8518)" gradientUnits="userSpaceOnUse">
		<stop  offset="0.2191" style="stop-color:#932F25"/>
		<stop  offset="0.4026" style="stop-color:#993026"/>
		<stop  offset="0.6549" style="stop-color:#AB3129"/>
		<stop  offset="0.9382" style="stop-color:#C7342D"/>
	</radialGradient>
	<path opacity="0.9" fill="url(#SVGID_11_)" enable-background="new    " d="M455.3498,13.6884
		c-5.3145,14.2613-19.6524,22.1487-32.2466,17.6338C410.7,26.6423,404.6896,11.3181,409.9969-2.947
		c5.1386-14.4178,19.6446-22.1831,32.2772-17.5069c12.4501,4.6982,18.4795,19.9672,13.0766,34.2183L455.3498,13.6884z"/>
	<path opacity="0.9" fill="#F9C625" enable-background="new    " d="M449.4771,9.1468c2.6993-18.3369-9.3368-29.4669-9.3368-29.4669
		C419.0581-15.5677,416.4122,2.773,416.4122,2.773c-1.5829,9.2679,4.6263,17.9048,13.7797,19.3314
		c8.8397,1.5446,17.1898-4.1216,19.0174-13.0719l0.2349,0.0783L449.4771,9.1468z"/>
	<path opacity="0.9" fill="#C0752E" enable-background="new    " d="M438.045-19.5903c0,0-38.7083,21.7056-9.7416,40.7229
		c0,0-9.4747-16.3653,9.7096-40.7174L438.045-19.5903z"/>

		<radialGradient id="SVGID_12_" cx="90.6915" cy="265.4831" r="38.9543" gradientTransform="matrix(0.8951 0.3297 0.3762 -1.0211 115.2505 143.8518)" gradientUnits="userSpaceOnUse">
		<stop  offset="0.2191" style="stop-color:#932F25"/>
		<stop  offset="0.4026" style="stop-color:#993026"/>
		<stop  offset="0.6549" style="stop-color:#AB3129"/>
		<stop  offset="0.9382" style="stop-color:#C7342D"/>
	</radialGradient>
	<path opacity="0.43" fill="url(#SVGID_12_)" enable-background="new    " d="M318.085-114.0235
		c-4.6187,12.6365-17.5344,19.6101-28.5837,15.4124c-11.126-4.0031-16.3872-17.7521-11.8448-30.4261
		c4.718-12.7125,17.5265-19.6869,28.8592-15.5228c10.9623,4.15,16.1303,17.853,11.5105,30.538L318.085-114.0235z"/>
	<path opacity="0.43" fill="#F9C625" enable-background="new    " d="M312.9954-118.0953
		c2.2023-16.3606-8.4724-26.4578-8.4724-26.4578c-18.6807,4.5154-21.0133,20.7534-21.0133,20.7534
		c-1.3917,8.1169,4.0375,15.8477,12.1354,17.2321c7.9446,1.3841,15.5149-3.8043,17.2204-11.6498l0.0782,0.1566L312.9954-118.0953z"
		/>
	<path opacity="0.43" fill="#C0752E" enable-background="new    " d="M302.6594-143.7003c0,0-34.5096,19.3275-8.6024,36.284
		c0,0-8.535-14.721,8.6134-36.2542L302.6594-143.7003z"/>

		<radialGradient id="SVGID_13_" cx="532.4532" cy="543.305" r="43.9963" gradientTransform="matrix(0.8288 0.4722 0.5387 -0.9455 -17.8729 242.3369)" gradientUnits="userSpaceOnUse">
		<stop  offset="0.2191" style="stop-color:#932F25"/>
		<stop  offset="0.4026" style="stop-color:#993026"/>
		<stop  offset="0.6549" style="stop-color:#AB3129"/>
		<stop  offset="0.9382" style="stop-color:#C7342D"/>
	</radialGradient>
	<path fill="url(#SVGID_13_)" d="M743.6608-34.7811c-7.5244,13.2707-23.2152,18.7426-34.9379,12.1198
		c-11.5317-6.7674-14.8955-22.9709-7.3333-36.3223c7.6468-13.2707,23.2919-18.6963,34.9379-11.9217
		c11.5104,6.4992,14.9557,22.7861,7.3605,36.0976L743.6608-34.7811z"/>
	<path fill="#F9C625" d="M738.5711-40.3407c5.5439-17.7481-4.4045-30.9007-4.4045-30.9007
		c-21.6633,1.3879-27.3981,19.1325-27.3981,19.1325c-3.0587,8.7974,1.4529,18.5013,10.4535,21.4722
		c8.6328,2.9287,17.8625-1.3917,21.1887-9.8646l0.0782,0.2349L738.5711-40.3407z"/>
	<path opacity="0.52" fill="#C0752E" enable-background="new    " d="M731.9154-70.8004c0,0-42.1411,15.2135-16.471,38.9408
		c0,0.0783-6.5774-17.853,16.4437-38.9165L731.9154-70.8004z"/>

		<radialGradient id="SVGID_14_" cx="644.5992" cy="631.553" r="44.0542" gradientTransform="matrix(0.8288 0.4722 0.5387 -0.9455 -17.8729 242.3369)" gradientUnits="userSpaceOnUse">
		<stop  offset="0.2191" style="stop-color:#932F25"/>
		<stop  offset="0.4026" style="stop-color:#993026"/>
		<stop  offset="0.6549" style="stop-color:#AB3129"/>
		<stop  offset="0.9382" style="stop-color:#C7342D"/>
	</radialGradient>
	<path opacity="0.43" fill="url(#SVGID_14_)" enable-background="new    " d="M884.136-65.2409
		c-7.6085,13.3514-23.2615,18.658-34.869,12.0861c-11.6766-6.6565-15.0027-22.7798-7.5626-36.1313
		c7.7309-13.3475,23.3303-18.8186,35.0602-12.1198c11.667,6.6558,14.8774,22.8644,7.3605,36.1759L884.136-65.2409z"/>
	<path opacity="0.43" fill="#F9C625" enable-background="new    " d="M878.968-70.6438
		c5.5822-17.8248-4.4733-30.9765-4.4733-30.9765c-21.556,1.3879-27.3754,19.2507-27.3754,19.2507
		c-2.8904,8.7974,1.7053,18.4246,10.4911,21.3532c8.4802,2.9708,17.756-1.5064,21.166-9.7456l0.2349,0.0783L878.968-70.6438z"/>
	<path opacity="0.43" fill="#C0752E" enable-background="new    " d="M872.1556-101.1819c0,0-41.8662,15.1712-16.2032,38.7771
		c0,0.0783-6.7339-17.7748,16.2087-38.7599L872.1556-101.1819z"/>

		<radialGradient id="SVGID_15_" cx="206.6018" cy="493.2691" r="43.9094" gradientTransform="matrix(0.8288 0.4722 0.5387 -0.9455 -17.8729 242.3369)" gradientUnits="userSpaceOnUse">
		<stop  offset="0.2191" style="stop-color:#932F25"/>
		<stop  offset="0.4026" style="stop-color:#993026"/>
		<stop  offset="0.6549" style="stop-color:#AB3129"/>
		<stop  offset="0.9382" style="stop-color:#C7342D"/>
	</radialGradient>
	<path fill="url(#SVGID_15_)" d="M446.58-141.3512c-7.5244,13.3052-23.2614,18.654-34.8619,12.1198
		c-11.5621-6.6986-15.1328-22.8981-7.3638-36.2033c7.685-13.313,23.2004-18.7426,34.8542-12.0054
		c11.6671,6.4991,14.8775,22.7078,7.3605,36.0193L446.58-141.3512z"/>
	<path fill="#F9C625" d="M441.5686-146.7542c5.5057-17.8248-4.481-30.9351-4.481-30.9351
		c-21.6249,1.3841-27.4443,19.1701-27.4443,19.1701c-2.9822,8.7903,1.8199,18.5013,10.5293,21.4683
		c8.4034,3.0128,17.8702-1.4644,21.0822-9.7416h0.3132L441.5686-146.7542z"/>
	<path opacity="0.52" fill="#C0752E" enable-background="new    " d="M434.9128-177.1356c0,0-42.1872,15.0561-16.5172,38.662
		c0,0-6.6558-17.7748,16.5219-38.6816L434.9128-177.1356z"/>

		<radialGradient id="SVGID_16_" cx="25.7994" cy="558.3391" r="41.4561" gradientTransform="matrix(0.8288 0.4722 0.5387 -0.9455 -17.8729 242.3369)" gradientUnits="userSpaceOnUse">
		<stop  offset="0.2191" style="stop-color:#932F25"/>
		<stop  offset="0.4026" style="stop-color:#993026"/>
		<stop  offset="0.6549" style="stop-color:#AB3129"/>
		<stop  offset="0.9382" style="stop-color:#C7342D"/>
	</radialGradient>
	<path opacity="0.43" fill="url(#SVGID_16_)" enable-background="new    " d="M330.222-287.4642
		c-7.2874,12.5175-21.9076,17.6259-32.9726,11.4087c-10.8434-6.2589-14.0851-21.6288-6.8974-34.1431
		c7.2338-12.5598,21.8464-17.5876,32.8426-11.4088c11.119,6.1859,14.2512,21.455,7.0472,34.14L330.222-287.4642z"/>
	<path opacity="0.43" fill="#F9C625" enable-background="new    " d="M325.5238-292.6323
		c5.2151-16.7959-4.221-29.1952-4.221-29.1952c-20.4778,1.3076-25.8462,18.1036-25.8462,18.1036
		c-2.7299,8.2774,1.5523,17.3926,9.91,20.2068c8.098,2.7299,16.7466-1.2349,19.943-9.1152h0.1566L325.5238-292.6323z"/>
	<path opacity="0.43" fill="#C0752E" enable-background="new    " d="M319.0246-321.4477c0,0-39.5945,14.3036-15.2933,36.7655
		c0,0-6.2643-16.9135,15.269-36.8023L319.0246-321.4477z"/>
	<path opacity="0.31" fill="#8B3624" enable-background="new    " d="M989.2184-232.7306c0,0-7.8381-116.9452-121.291-185.7421
		c3.4869-17.5108-0.4053-35.3741-24.1251-45.0774c-1.147-0.3976-2.1411-0.8755-3.2499-1.3114
		c-22.9709-8.9508-42.7377-11.3289-57.7098-11.2905c-28.2087-54.3037-83.8309-62.3862-83.8309-62.3862
		c-29.5092,9.3862-44.1597,20.08-51.3635,28.0441c-0.2523,0.1185-0.5964,0.1185-1.04,0.237
		c-107.502-90.5494-255.9798-3.8808-255.9798-3.8808c55.3851-12.6404,115.7159,14.1806,176.6668,29.4669
		c-46.8901,7.4938-106.8599,24.4086-127.1403,61.759c0,0,84.614,40.0879,179.2038,34.6591
		c-24.439,41.7549-61.3957,129.3406-10.0939,213.5553c0,0,74.8997-56.7234,100.7679-181.3885
		c0.1224,0.0841,0.3594,0.1606,0.5506,0.1606c9.0768,52.8849,40.6885,169.6979,147.5694,180.0417c0,0,4.9398-78.71-31.145-151.0461
		c51.8364,37.507,101.6371,84.3321,162.2434,94.2766L989.2184-232.7306z"/>

		<linearGradient id="SVGID_17_" gradientUnits="userSpaceOnUse" x1="342.4156" y1="731.1404" x2="305.4565" y2="216.5308" gradientTransform="matrix(0.9565 0.2919 0.2919 -0.9565 223.5752 64.9493)">
		<stop  offset="0" style="stop-color:#739A3F"/>
		<stop  offset="0.135" style="stop-color:#82A43D"/>
		<stop  offset="0.5098" style="stop-color:#A8BB39"/>
		<stop  offset="0.8114" style="stop-color:#BFCA36"/>
		<stop  offset="1" style="stop-color:#C8CF35"/>
	</linearGradient>
	<path fill="url(#SVGID_17_)" d="M1039.2538-253.6374c0,0-29.9062-114.604-143.1533-183.3695
		c3.4028-17.4694-0.4741-35.3318-24.2481-45.0773c-0.9788-0.3556-2.0187-0.8297-3.1964-1.3459
		c-23.0242-8.8357-42.7533-11.2905-57.9244-11.2905c-27.8806-54.1926-83.5491-62.268-83.5491-62.268
		c-29.7003,9.3063-44.2443,20.0424-51.4935,27.9604c-0.2753,0-0.5505,0.0841-0.8717,0.0841
		c-107.6664-90.4789-296.3448,2.3743-296.3448,2.3743c55.3014-12.7164,155.8383,8.0785,217.0084,23.4525
		c-46.951,7.5665-106.9147,24.3209-127.2812,61.7167c0,0,84.5748,40.0879,179.2038,34.5785
		c-24.3092,41.7135-61.3118,129.4189-10.2546,213.7119c0,0,75.0604-56.9261,100.9011-181.5842
		c0.1529,0.1223,0.3594,0.1988,0.5505,0.1988c8.8701,52.9617,40.7573,169.737,147.5931,180.1512
		c0,0,4.9628-78.7883-31.2069-151.1949c51.9148,37.4287,123.9532,82.0614,184.3249,91.8492L1039.2538-253.6374z"/>

		<linearGradient id="SVGID_18_" gradientUnits="userSpaceOnUse" x1="287.1111" y1="701.1428" x2="311.2286" y2="588.9344" gradientTransform="matrix(0.9565 0.2919 0.2919 -0.9565 223.5752 64.9493)">
		<stop  offset="0" style="stop-color:#FFFFFF"/>
		<stop  offset="0.1286" style="stop-color:#FAFBEC"/>
		<stop  offset="0.3902" style="stop-color:#ECF2BA"/>
		<stop  offset="0.7578" style="stop-color:#D6E36A"/>
		<stop  offset="1" style="stop-color:#C7D932"/>
	</linearGradient>
	<path opacity="0.25" fill="url(#SVGID_18_)" enable-background="new    " d="M718.134-503.8149
		c-44.4126-3.4449-98.1134-7.9603-105.4113,15.8062c-9.7495,32.3649,35.5652,66.7061,101.6449,86.8691
		c23.2465,7.2453,45.9114,1.2694,66.1064,1.1891C763.5607-458.1451,658.9481-466.5,718.145-503.78L718.134-503.8149z"/>

		<linearGradient id="SVGID_19_" gradientUnits="userSpaceOnUse" x1="355.9318" y1="277.0394" x2="247.9985" y2="667.1466" gradientTransform="matrix(0.9565 0.2919 0.2919 -0.9565 223.5752 64.9493)">
		<stop  offset="0" style="stop-color:#FFFFFF"/>
		<stop  offset="0.2641" style="stop-color:#FFFFFF"/>
		<stop  offset="0.414" style="stop-color:#DAEECE"/>
		<stop  offset="0.6153" style="stop-color:#ACD993"/>
		<stop  offset="0.7872" style="stop-color:#8BCA68"/>
		<stop  offset="0.9209" style="stop-color:#77C04E"/>
		<stop  offset="1" style="stop-color:#6FBD44"/>
	</linearGradient>
	<path opacity="0.22" fill="url(#SVGID_19_)" enable-background="new    " d="M644.1379-389.2579
		c0,0-56.1729,89.046-2.9364,185.0687c0,0,28.9963-28.8358,39.7325-52.7627c0.0782,0.0783-57.0045-17.3049-36.7241-132.2534
		L644.1379-389.2579z"/>

		<linearGradient id="SVGID_20_" gradientUnits="userSpaceOnUse" x1="510.0296" y1="337.5777" x2="416.6919" y2="674.8301" gradientTransform="matrix(0.9565 0.2919 0.2919 -0.9565 223.5752 64.9493)">
		<stop  offset="0" style="stop-color:#FFFFFF"/>
		<stop  offset="0.2641" style="stop-color:#FFFFFF"/>
		<stop  offset="0.414" style="stop-color:#DAEECE"/>
		<stop  offset="0.6153" style="stop-color:#ACD993"/>
		<stop  offset="0.7872" style="stop-color:#8BCA68"/>
		<stop  offset="0.9209" style="stop-color:#77C04E"/>
		<stop  offset="1" style="stop-color:#6FBD44"/>
	</linearGradient>
	<path opacity="0.22" fill="url(#SVGID_20_)" enable-background="new    " d="M749.6118-364.0444
		c0,0,15.0873,137.1395,129.7633,163.4415c0,0-0.3135-33.5504-1.0629-47.6966c0.0784,0-84.8802-9.3963-128.6515-115.7316
		L749.6118-364.0444z"/>

		<linearGradient id="SVGID_21_" gradientUnits="userSpaceOnUse" x1="183.4365" y1="524.645" x2="153.5246" y2="632.7819" gradientTransform="matrix(0.9565 0.2919 0.2919 -0.9565 223.5752 64.9493)">
		<stop  offset="0" style="stop-color:#FFFFFF"/>
		<stop  offset="0.2641" style="stop-color:#FFFFFF"/>
		<stop  offset="0.414" style="stop-color:#DAEECE"/>
		<stop  offset="0.6153" style="stop-color:#ACD993"/>
		<stop  offset="0.7872" style="stop-color:#8BCA68"/>
		<stop  offset="0.9209" style="stop-color:#77C04E"/>
		<stop  offset="1" style="stop-color:#6FBD44"/>
	</linearGradient>
	<path opacity="0.22" fill="url(#SVGID_21_)" enable-background="new    " d="M499.9041-465.9007
		c0,0-22.191,16.6738-24.0108,22.2638c0,0,43.931,29.3479,154.8829,32.48c0,0-152.2206-29.2696-130.844-54.7415L499.9041-465.9007z"
		/>

		<linearGradient id="SVGID_22_" gradientUnits="userSpaceOnUse" x1="605.5449" y1="477.1167" x2="556.4095" y2="654.7086" gradientTransform="matrix(0.9565 0.2919 0.2919 -0.9565 223.5752 64.9493)">
		<stop  offset="0" style="stop-color:#FFFFFF"/>
		<stop  offset="0.2641" style="stop-color:#FFFFFF"/>
		<stop  offset="0.414" style="stop-color:#DAEECE"/>
		<stop  offset="0.6153" style="stop-color:#ACD993"/>
		<stop  offset="0.7872" style="stop-color:#8BCA68"/>
		<stop  offset="0.9209" style="stop-color:#77C04E"/>
		<stop  offset="1" style="stop-color:#6FBD44"/>
	</linearGradient>
	<path opacity="0.22" fill="url(#SVGID_22_)" enable-background="new    " d="M859.7055-350.1848
		c0,0,65.2419,55.5801,169.4709,88.6936c0,0-7.058-29.1952-20.6006-45.7085c0,0-20.6721,28.189-148.8537-42.9883L859.7055-350.1848z
		"/>
	<path opacity="0.63" fill="#488D41" enable-background="new    " d="M781.0895-467.733c0,0,66.1901,57.9206,4.6415,69.998
		c-61.5178,12.0821-122.3638-36.4445-135.6362-55.7719c-13.3898-19.3729-11.9216-67.5824,49.3214-47.3372l81.6699,33.0908
		L781.0895-467.733z"/>

		<linearGradient id="SVGID_23_" gradientUnits="userSpaceOnUse" x1="333.9644" y1="624.2484" x2="317.4424" y2="812.6462" gradientTransform="matrix(0.9565 0.2919 0.2919 -0.9565 223.5752 64.9493)">
		<stop  offset="0" style="stop-color:#71A642"/>
		<stop  offset="0.3659" style="stop-color:#7CAF42"/>
		<stop  offset="1" style="stop-color:#99C841"/>
	</linearGradient>
	<path fill="url(#SVGID_23_)" d="M781.0895-467.733c2.0264-47.5321,44.5268-134.3598,44.5268-134.3598
		c-17.7866-36.4061-55.775-18.979-55.775-18.979c-17.4269,64.451-48.8015,101.457-70.4263,120.2262
		c-22.2216-1.7855-39.496,3.4449-44.5653,15.565c-8.0065,19.3729,18.7731,49.1992,59.8132,66.3929
		c41.2006,17.0716,81.2861,15.2095,89.2103-4.1981c5.2463-12.7086-4.3066-29.7473-22.8646-44.6483L781.0895-467.733z"/>
	<path opacity="0.38" fill="#FFFFFF" enable-background="new    " d="M524.0214,243.8986
		c-65.877-4.7907-115.943-54.6632-111.8633-111.4249c4.1522-56.9222,60.8836-99.1078,126.7958-94.3157
		c65.8847,4.7945,116.0995,54.747,111.8634,111.5894c-4.1501,56.7695-60.8414,98.9747-126.7723,94.12L524.0214,243.8986z"/>

		<radialGradient id="SVGID_24_" cx="151.8955" cy="57.4035" r="940.8145" gradientTransform="matrix(0.9929 0.1187 0.1187 -0.9929 -62.6911 400.3447)" gradientUnits="userSpaceOnUse">
		<stop  offset="0.2191" style="stop-color:#EA2D2E"/>
		<stop  offset="0.8202" style="stop-color:#B3282E"/>
	</radialGradient>
	<path fill="url(#SVGID_24_)" d="M-33.8861-318.159c-20.7455-7.4518-40.6885-12.8769-61.4802-16.7615
		c-218.9973-45.4712-463.6309,115.4732-552.2462,363.8027c-85.8434,240.6401-4.0987,493.6913,182.8057,594.3496l-0.2753,0.4282
		c358.0396,188.326,637.2125,53.2444,773.5457-42.7761c53.1527-37.4765,79.4226-83.5883,79.4226-83.5883
		c92.0294-294.121-58.4594-538.3318-196.5479-663.7102C138.249-225.6898,54.0735-286.8443-33.8605-318.0871L-33.8861-318.159z"/>

		<radialGradient id="SVGID_25_" cx="-817.8198" cy="-738.3553" r="61.2348" gradientTransform="matrix(0.5101 -0.806 -0.9195 -0.582 -274.5921 -849.5507)" gradientUnits="userSpaceOnUse">
		<stop  offset="0.2191" style="stop-color:#932F25"/>
		<stop  offset="0.4026" style="stop-color:#993026"/>
		<stop  offset="0.6549" style="stop-color:#AB3129"/>
		<stop  offset="0.9382" style="stop-color:#C7342D"/>
	</radialGradient>
	<path fill="url(#SVGID_25_)" d="M-31.7719,200.0491c18.0652,11.4048,24.6951,33.5081,14.6591,49.2376
		c-10.1817,15.9667-32.7431,19.4497-50.9195,8.044c-18.1263-11.3327-24.5809-33.6341-14.6247-49.2838
		c10.2577-15.8955,32.9655-19.4974,50.8968-8.0652L-31.7719,200.0491z"/>
	<path fill="#F9C625" d="M-39.6805,206.5482c-24.4775-8.7558-43.4753,4.3548-43.4753,4.3548
		c0.5965,30.224,25.0318,39.3385,25.0318,39.3385c12.162,4.871,25.8345-1.1088,30.5678-13.1909
		c4.7525-11.7681-0.8335-24.9974-12.2881-30.109l0.1566-0.3915L-39.6805,206.5482z"/>
	<path opacity="0.52" fill="#C0752E" enable-background="new    " d="M-82.5122,214.2218c0,0,18.4019,59.377,53.0227,25.1501
		c0,0-25.2918,8.2218-53.011-25.1353L-82.5122,214.2218z"/>

		<radialGradient id="SVGID_26_" cx="-685.2524" cy="-537.899" r="61.2927" gradientTransform="matrix(0.5101 -0.806 -0.9195 -0.582 -274.5921 -849.5507)" gradientUnits="userSpaceOnUse">
		<stop  offset="0.2191" style="stop-color:#932F25"/>
		<stop  offset="0.4026" style="stop-color:#993026"/>
		<stop  offset="0.6549" style="stop-color:#AB3129"/>
		<stop  offset="0.9382" style="stop-color:#C7342D"/>
	</radialGradient>
	<path opacity="0.9" fill="url(#SVGID_26_)" enable-background="new    " d="M-148.3648-23.4272
		c18.1765,11.4087,24.5996,33.512,14.5745,49.3174c-9.9256,15.9245-32.8543,19.4074-50.8279,8.0409
		c-18.1154-11.4894-24.6951-33.5504-14.6778-49.4749c10.0228-15.6606,32.8871-19.2625,50.8968-7.9085L-148.3648-23.4272z"/>
	<path opacity="0.9" fill="#F9C625" enable-background="new    " d="M-156.3517-16.7714
		c-24.2442-8.8741-43.4792,4.1216-43.4792,4.1216c0.6576,30.3384,25.0467,39.4114,25.0467,39.4114
		c12.0359,4.9513,25.8228-0.9903,30.748-13.1102c4.3816-11.646-0.9635-25.0741-12.4721-30.2656l0.0783-0.1566L-156.3517-16.7714z"/>
	<path opacity="0.9" fill="#C0752E" enable-background="new    " d="M-199.1833-9.3327c0,0,18.4552,59.6182,53.0031,25.2347
		c0,0-25.2918,8.3001-53.011-25.2135L-199.1833-9.3327z"/>

		<radialGradient id="SVGID_27_" cx="-766.5143" cy="-529.5095" r="61.3694" gradientTransform="matrix(0.7312 -0.6126 -0.6988 -0.8342 -159.0582 -546.8978)" gradientUnits="userSpaceOnUse">
		<stop  offset="0.2191" style="stop-color:#932F25"/>
		<stop  offset="0.4026" style="stop-color:#993026"/>
		<stop  offset="0.6549" style="stop-color:#AB3129"/>
		<stop  offset="0.9382" style="stop-color:#C7342D"/>
	</radialGradient>
	<path opacity="0.43" fill="url(#SVGID_27_)" enable-background="new    " d="M-355.6324,321.1835
		c13.8635,16.5595,13.1259,39.492-1.1088,51.5773c-14.3795,11.9631-37.0638,8.5146-50.9195-7.8836
		c-13.6302-16.2416-13.1604-39.4153,1.1088-51.5389c14.5643-11.9021,37.2722-8.4567,50.8968,7.8303L-355.6324,321.1835z"/>
	<path opacity="0.43" fill="#F9C625" enable-background="new    " d="M-365.1853,325.1769
		c-20.5357-15.8822-42.585-9.1113-42.585-9.1113c-8.6712,28.9204,11.7643,45.1158,11.7643,45.1158
		c10.1817,8.2014,24.9207,6.8133,33.1832-3.2843c8.1169-9.7878,6.6718-24.125-2.3629-32.4033v-0.3131L-365.1853,325.1769z"/>
	<path opacity="0.43" fill="#C0752E" enable-background="new    " d="M-408.3301,319.3042c0,0-0.5582,62.1873,43.1354,40.1263
		c0,0.0783-26.7795,0.1566-43.1449-40.091L-408.3301,319.3042z"/>

		<radialGradient id="SVGID_28_" cx="-656.28" cy="-836.861" r="61.407" gradientTransform="matrix(0.5101 -0.806 -0.9195 -0.582 -274.5921 -849.5507)" gradientUnits="userSpaceOnUse">
		<stop  offset="0.2191" style="stop-color:#932F25"/>
		<stop  offset="0.4026" style="stop-color:#993026"/>
		<stop  offset="0.6549" style="stop-color:#AB3129"/>
		<stop  offset="0.9382" style="stop-color:#C7342D"/>
	</radialGradient>
	<path opacity="0.9" fill="url(#SVGID_28_)" enable-background="new    " d="M141.2773,127.149
		c18.0081,11.4087,24.5229,33.4737,14.5056,49.3558c-10.1856,15.7679-32.8042,19.3345-50.9274,8.044
		c-18.0238-11.6498-24.584-33.5543-14.4907-49.478c9.9445-15.7388,32.8089-19.3408,50.8968-7.9085L141.2773,127.149z"/>
	<path opacity="0.9" fill="#F9C625" enable-background="new    " d="M133.2121,133.8831
		c-24.4234-9.0307-43.3727,4.1598-43.3727,4.1598c0.5582,30.304,25.0741,39.4114,25.0741,39.4114
		c11.9827,4.7563,25.6778-1.1432,30.4417-13.2669c4.7563-11.6498-0.6576-24.8784-12.2654-30.0667l0.1566-0.2349L133.2121,133.8831z"
		/>
	<path opacity="0.9" fill="#C0752E" enable-background="new    " d="M90.3804,141.2436c0,0,18.3902,59.6103,53,25.3107
		c0,0-25.2918,8.2218-53.011-25.2918L90.3804,141.2436z"/>

		<radialGradient id="SVGID_29_" cx="-780.5476" cy="-983.21" r="61.3115" gradientTransform="matrix(0.5101 -0.806 -0.9195 -0.582 -274.5921 -849.5507)" gradientUnits="userSpaceOnUse">
		<stop  offset="0.2191" style="stop-color:#932F25"/>
		<stop  offset="0.4026" style="stop-color:#993026"/>
		<stop  offset="0.6549" style="stop-color:#AB3129"/>
		<stop  offset="0.9382" style="stop-color:#C7342D"/>
	</radialGradient>
	<path opacity="0.9" fill="url(#SVGID_29_)" enable-background="new    " d="M212.4545,312.4919
		c18.1154,11.4087,24.4775,33.5543,14.4524,49.5203c-9.9256,15.7216-32.6366,19.2468-50.7668,7.7997
		c-18.1765-11.451-24.569-33.4698-14.5134-49.3519c10.0228-15.7388,32.7305-19.4191,50.7402-7.9869L212.4545,312.4919z"/>
	<path opacity="0.9" fill="#F9C625" enable-background="new    " d="M204.6242,319.3042c-24.5996-9.073-43.548,4.0796-43.548,4.0796
		c0.5506,30.304,24.9128,39.373,24.9128,39.373c12.1815,4.9092,25.8689-0.952,30.625-13.1486
		c4.7716-11.7681-0.6576-24.8784-12.1659-30.1857l0.1566-0.1566L204.6242,319.3042z"/>
	<path opacity="0.9" fill="#C0752E" enable-background="new    " d="M161.636,326.6647c0,0,18.398,59.6142,53.1832,25.2307
		c0.0783,0-25.2918,8.3001-53.1676-25.2135L161.636,326.6647z"/>

		<radialGradient id="SVGID_30_" cx="-525.7485" cy="-877.9703" r="52.9949" gradientTransform="matrix(0.5101 -0.806 -0.9195 -0.582 -274.5921 -849.5507)" gradientUnits="userSpaceOnUse">
		<stop  offset="0.2191" style="stop-color:#932F25"/>
		<stop  offset="0.4026" style="stop-color:#993026"/>
		<stop  offset="0.6549" style="stop-color:#AB3129"/>
		<stop  offset="0.9382" style="stop-color:#C7342D"/>
	</radialGradient>
	<path opacity="0.43" fill="url(#SVGID_30_)" enable-background="new    " d="M248.3172,51.2737
		c15.63,9.7839,21.1966,28.8014,12.5409,42.6234c-8.6024,13.7492-28.2853,16.7537-43.9076,6.9318
		c-15.6762-9.9828-21.35-29.0769-12.7548-42.7799c8.8483-13.5464,28.424-16.8351,44.1628-6.8123L248.3172,51.2737z"/>
	<path opacity="0.43" fill="#F9C625" enable-background="new    " d="M241.5049,56.9898
		c-21.2428-7.7615-37.5682,3.6437-37.5682,3.6437c0.4129,26.1484,21.4722,34.032,21.4722,34.032
		c10.4299,4.114,22.3131-0.9558,26.381-11.3327c4.221-10.3344-0.7188-21.7095-10.2851-26.1062v-0.3132L241.5049,56.9898z"/>
	<path opacity="0.43" fill="#C0752E" enable-background="new    " d="M204.3893,63.4106c0,0,15.7827,51.3783,45.9113,21.7854
		c0,0.0783-21.9248,7.1256-45.8855-21.7682L204.3893,63.4106z"/>

		<radialGradient id="SVGID_31_" cx="-872.0059" cy="-1117.2651" r="48.8832" gradientTransform="matrix(0.5101 -0.806 -0.9195 -0.582 -274.5921 -849.5507)" gradientUnits="userSpaceOnUse">
		<stop  offset="0.2191" style="stop-color:#932F25"/>
		<stop  offset="0.4026" style="stop-color:#993026"/>
		<stop  offset="0.6549" style="stop-color:#AB3129"/>
		<stop  offset="0.9382" style="stop-color:#C7342D"/>
	</radialGradient>
	<path opacity="0.43" fill="url(#SVGID_31_)" enable-background="new    " d="M292.9498,472.2296
		c14.4601,9.1074,19.5146,26.6949,11.5081,39.3652c-8.098,12.6858-26.1211,15.5305-40.5663,6.3009
		c-14.544-8.9547-19.7284-26.695-11.6921-39.373c7.9869-12.685,26.2315-15.4257,40.7174-6.2643L292.9498,472.2296z"/>
	<path opacity="0.43" fill="#F9C625" enable-background="new    " d="M286.6856,477.6325
		c-19.6674-7.2109-34.8996,3.3263-34.8996,3.3263c0.4282,24.1251,19.9203,31.5655,19.9203,31.5655
		c9.7722,3.7316,20.7839-0.9482,24.5463-10.6523c3.8463-9.4668-0.6576-20.004-9.7416-24.0413l0.2349-0.1566L286.6856,477.6325z"/>
	<path opacity="0.43" fill="#C0752E" enable-background="new    " d="M252.2323,483.5052c0,0,14.8039,47.5321,42.5693,20.2029
		c0,0-20.437,6.6558-42.5968-20.2021L252.2323,483.5052z"/>

		<radialGradient id="SVGID_32_" cx="-1045.9958" cy="-984.6193" r="55.6095" gradientTransform="matrix(0.5101 -0.806 -0.9195 -0.582 -274.5921 -849.5507)" gradientUnits="userSpaceOnUse">
		<stop  offset="0.2191" style="stop-color:#932F25"/>
		<stop  offset="0.4026" style="stop-color:#993026"/>
		<stop  offset="0.6549" style="stop-color:#AB3129"/>
		<stop  offset="0.9382" style="stop-color:#C7342D"/>
	</radialGradient>
	<path opacity="0.43" fill="url(#SVGID_32_)" enable-background="new    " d="M80.0445,530.8784
		c16.6393,10.3846,22.4431,30.3423,13.252,44.8408c-9.0385,14.3075-29.6846,17.5109-46.1713,7.1804
		c-16.471-10.3079-22.4353-30.4645-13.0836-44.772c8.9265-14.5643,29.6767-17.6964,46.0421-7.2821L80.0445,530.8784z"/>
	<path opacity="0.43" fill="#F9C625" enable-background="new    " d="M72.9189,536.8294
		c-22.1448-8.0746-39.5187,3.8846-39.5187,3.8846c0.6194,27.4897,22.6342,35.9246,22.6342,35.9246
		c11.1183,4.2822,23.5981-1.0247,27.926-11.9216c4.1675-10.8129-0.7035-22.9326-11.1644-27.5281l0.1566-0.3915L72.9189,536.8294z"/>
	<path opacity="0.43" fill="#C0752E" enable-background="new    " d="M34.0024,543.7201c0,0,16.5321,54.0321,48.1438,22.8566
		c0,0-22.8644,7.5172-48.1562-22.8644L34.0024,543.7201z"/>

		<radialGradient id="SVGID_33_" cx="-695.7864" cy="-737.8569" r="55.7864" gradientTransform="matrix(0.3709 -0.8788 -1.0026 -0.4232 -365.786 -986.5721)" gradientUnits="userSpaceOnUse">
		<stop  offset="0.2191" style="stop-color:#932F25"/>
		<stop  offset="0.4026" style="stop-color:#993026"/>
		<stop  offset="0.6549" style="stop-color:#AB3129"/>
		<stop  offset="0.9382" style="stop-color:#C7342D"/>
	</radialGradient>
	<path opacity="0.43" fill="url(#SVGID_33_)" enable-background="new    " d="M92.9644-95.3091
		c18.0692,7.49,27.2839,26.5039,20.5388,42.1911c-6.6909,15.7639-26.5493,22.2216-44.5198,14.7318
		C50.807-46.033,41.8907-64.9621,48.5057-80.5695c6.8123-15.6606,26.7795-22.3946,44.5543-14.721L92.9644-95.3091z"/>
	<path opacity="0.43" fill="#F9C625" enable-background="new    " d="M87.0135-88.2619
		C63.7364-92.5824,48.5652-77.962,48.5652-77.962c4.978,27.2493,28.4231,31.5732,28.4231,31.5732
		c11.455,2.6114,22.8942-4.7181,25.5095-16.2839c2.4164-11.3327-4.5345-22.3821-15.6073-25.2722l0.0783-0.3132L87.0135-88.2619z"/>
	<path opacity="0.43" fill="#C0752E" enable-background="new    " d="M49.5064-75.107c0,0,25.4101,50.8662,51.4089,14.7389
		c0,0-21.455,11.119-51.445-14.721L49.5064-75.107z"/>

		<radialGradient id="SVGID_34_" cx="-1169.9128" cy="-858.522" r="55.9211" gradientTransform="matrix(0.3709 -0.8788 -1.0026 -0.4232 -365.786 -986.5721)" gradientUnits="userSpaceOnUse">
		<stop  offset="0.2191" style="stop-color:#932F25"/>
		<stop  offset="0.4026" style="stop-color:#993026"/>
		<stop  offset="0.6549" style="stop-color:#AB3129"/>
		<stop  offset="0.9382" style="stop-color:#C7342D"/>
	</radialGradient>
	<path opacity="0.9" fill="url(#SVGID_34_)" enable-background="new    " d="M38.3091,372.3935
		c17.7559,7.6047,27.1076,26.4233,20.394,42.1065c-6.5762,15.8062-26.4578,22.3437-44.5268,14.8955
		c-17.9588-7.6812-27.1648-26.6566-20.3407-42.3477c6.4991-15.6606,26.5446-22.3946,44.5543-14.6426L38.3091,372.3935z"/>
	<path opacity="0.9" fill="#F9C625" enable-background="new    " d="M32.2015,379.5974
		C8.825,375.2387-6.2084,389.6609-6.2084,389.6609c4.8748,27.2916,28.1631,31.7643,28.1631,31.7643
		c11.7298,2.5005,23.0625-4.7907,25.5784-16.395c2.4776-11.2481-4.4886-22.4204-15.4843-25.0741l0.1566-0.4698L32.2015,379.5974z"/>
	<path opacity="0.9" fill="#C0752E" enable-background="new    " d="M-5.3839,392.5174c0,0,25.5322,50.8624,51.4779,14.8157
		c0.0783,0.0782-21.5333,11.2756-51.445-14.7992L-5.3839,392.5174z"/>

		<radialGradient id="SVGID_35_" cx="-1399.4983" cy="-769.8831" r="49.7931" gradientTransform="matrix(0.3709 -0.8788 -1.0026 -0.4232 -365.786 -986.5721)" gradientUnits="userSpaceOnUse">
		<stop  offset="0.2191" style="stop-color:#932F25"/>
		<stop  offset="0.4026" style="stop-color:#993026"/>
		<stop  offset="0.6549" style="stop-color:#AB3129"/>
		<stop  offset="0.9382" style="stop-color:#C7342D"/>
	</radialGradient>
	<path opacity="0.43" fill="url(#SVGID_35_)" enable-background="new    " d="M-133.2524,540.1964
		c15.8673,6.7368,23.9653,23.4987,18.1036,37.5995c-5.8383,13.9473-23.5864,19.7668-39.5985,13.1525
		c-15.8978-6.8132-24.1792-23.6898-18.1569-37.5916c5.951-14.0162,23.5691-19.8889,39.6996-13.1548L-133.2524,540.1964z"/>
	<path opacity="0.43" fill="#F9C625" enable-background="new    " d="M-138.7336,546.6955
		c-20.8145-3.9992-34.1698,9.0691-34.1698,9.0691c4.3739,24.1251,25.1156,28.1631,25.1156,28.1631
		c10.48,2.3016,20.4974-4.2746,22.8902-14.5745c2.0837-10.0635-4.0948-19.8434-13.8369-22.4587v-0.2349L-138.7336,546.6955z"/>
	<path opacity="0.43" fill="#C0752E" enable-background="new    " d="M-172.0906,558.2061c0,0,22.711,45.1924,45.7351,13.1063
		c0,0-19.1842,10.0228-45.7288-13.0765L-172.0906,558.2061z"/>

		<radialGradient id="SVGID_36_" cx="-625.4288" cy="-656.998" r="56.2492" gradientTransform="matrix(0.5101 -0.806 -0.9195 -0.582 -274.5921 -849.5507)" gradientUnits="userSpaceOnUse">
		<stop  offset="0.2191" style="stop-color:#932F25"/>
		<stop  offset="0.4026" style="stop-color:#993026"/>
		<stop  offset="0.6549" style="stop-color:#AB3129"/>
		<stop  offset="0.9382" style="stop-color:#C7342D"/>
	</radialGradient>
	<path fill="url(#SVGID_36_)" d="M-6.715,1.0033C9.886,11.4568,15.866,31.7434,6.5369,46.2412
		c-9.073,14.6168-30.0017,17.9815-46.6371,7.3294C-56.5445,43.1101-62.5285,22.8305-53.3709,8.3328
		c9.0832-14.5643,29.99-17.7748,46.6685-7.3605L-6.715,1.0033z"/>
	<path fill="#F9C625" d="M-13.9972,7.1109c-22.3054-8.0824-39.9469,3.9572-39.9469,3.9572
		c0.5544,27.6926,22.8981,36.0506,22.8981,36.0506c11.1871,4.4351,23.6671-1.0285,28.1937-12.0861
		C1.491,24.3044-3.4985,12.2184-14.1733,7.4663l0.2349-0.3915L-13.9972,7.1109z"/>
	<path opacity="0.52" fill="#C0752E" enable-background="new    " d="M-53.3835,14.0015c0,0,16.9337,54.6663,48.702,23.1737
		c0-0.0783-23.1777,7.5171-48.7044-23.1777L-53.3835,14.0015z"/>

		<radialGradient id="SVGID_37_" cx="-481.8986" cy="-544.3978" r="56.4833" gradientTransform="matrix(0.5101 -0.806 -0.9195 -0.582 -274.5921 -849.5507)" gradientUnits="userSpaceOnUse">
		<stop  offset="0.2191" style="stop-color:#932F25"/>
		<stop  offset="0.4026" style="stop-color:#993026"/>
		<stop  offset="0.6549" style="stop-color:#AB3129"/>
		<stop  offset="0.9382" style="stop-color:#C7342D"/>
	</radialGradient>
	<path opacity="0.43" fill="url(#SVGID_37_)" enable-background="new    " d="M-37.1748-180.4244
		c16.4256,10.5333,22.6233,30.9351,13.313,45.4712c-9.2068,14.4985-30.0823,17.6714-46.8212,7.3294
		c-16.4444-10.6179-22.4588-30.7746-13.252-45.4712c9.2397-14.4077,30.0682-17.6181,46.7468-7.3605L-37.1748-180.4244z"/>
	<path opacity="0.43" fill="#F9C625" enable-background="new    " d="M-44.5353-174.3168
		c-22.2944-7.918-39.7629,4.0872-39.7629,4.0872c0.4015,27.727,22.8981,36.165,22.8981,36.165
		c11.0767,4.2363,23.6709-1.1088,28.052-12.162c4.3319-10.8543-0.78-22.9364-11.3516-27.6887l0.2349-0.3915L-44.5353-174.3168z"/>
	<path opacity="0.43" fill="#C0752E" enable-background="new    " d="M-83.9216-167.3477c0,0,17.0677,54.5865,48.8437,23.1737
		c0,0-23.3342,7.5171-48.861-23.1777L-83.9216-167.3477z"/>

		<radialGradient id="SVGID_38_" cx="-1042.3939" cy="-721.2852" r="56.1544" gradientTransform="matrix(0.5101 -0.806 -0.9195 -0.582 -274.5921 -849.5507)" gradientUnits="userSpaceOnUse">
		<stop  offset="0.2191" style="stop-color:#932F25"/>
		<stop  offset="0.4026" style="stop-color:#993026"/>
		<stop  offset="0.6549" style="stop-color:#AB3129"/>
		<stop  offset="0.9382" style="stop-color:#C7342D"/>
	</radialGradient>
	<path fill="url(#SVGID_38_)" d="M-160.5017,374.4293c16.5744,10.5373,22.5387,30.8168,13.4047,45.3569
		c-9.2679,14.4563-30.1246,17.7442-46.6606,7.1689c-16.5744-10.5372-22.5583-30.7018-13.4125-45.2379
		c9.2397-14.4861,30.2249-17.7747,46.6685-7.2821V374.4293z"/>
	<path fill="#F9C625" d="M-167.549,380.537c-22.516-8.1631-39.9845,3.8004-39.9845,3.8004
		c0.39,27.7733,22.8864,36.0851,22.8864,36.0851c11.0148,4.481,23.6169-0.9061,28.052-12.1198
		c4.2784-10.6523-0.8335-22.8566-11.1871-27.6503l0.3132-0.1566L-167.549,380.537z"/>
	<path opacity="0.52" fill="#C0752E" enable-background="new    " d="M-207.1702,387.3494c0,0,16.915,54.5059,48.8437,23.1314
		c0,0-23.4126,7.5954-48.861-23.0993L-207.1702,387.3494z"/>

		<radialGradient id="SVGID_39_" cx="-1273.8585" cy="-637.9704" r="52.9941" gradientTransform="matrix(0.5101 -0.806 -0.9195 -0.582 -274.5921 -849.5507)" gradientUnits="userSpaceOnUse">
		<stop  offset="0.2191" style="stop-color:#932F25"/>
		<stop  offset="0.4026" style="stop-color:#993026"/>
		<stop  offset="0.6549" style="stop-color:#AB3129"/>
		<stop  offset="0.9382" style="stop-color:#C7342D"/>
	</radialGradient>
	<path opacity="0.43" fill="url(#SVGID_39_)" enable-background="new    " d="M-354.2229,514.4348
		c15.6606,9.8646,21.3461,28.9509,12.6975,42.6922c-8.7558,13.6724-28.4004,16.7231-44.0758,6.8591
		c-15.6833-9.8646-21.2467-29.0346-12.5942-42.6993c8.6916-13.7812,28.4239-16.9134,44.0062-6.8907L-354.2229,514.4348z"/>
	<path opacity="0.43" fill="#F9C625" enable-background="new    " d="M-360.957,520.1509
		c-21.2467-7.6468-37.5759,3.571-37.5759,3.571c0.3976,26.3739,21.5333,34.1807,21.5333,34.1807
		c10.5599,4.2822,22.4353-0.8335,26.5-11.4087c4.156-10.2239-0.7684-21.6249-10.675-25.9841l0.2349-0.3915L-360.957,520.1509z"/>
	<path opacity="0.43" fill="#C0752E" enable-background="new    " d="M-398.1508,526.65c0,0,15.9323,51.4935,46.1063,21.747
		c0,0-22.238,7.1256-46.1204-21.7682L-398.1508,526.65z"/>
	<path opacity="0.31" fill="#8B3624" enable-background="new    " d="M-245.0688-324.4232c0,0-150.0752,2.9287-244.5319,143.6387
		c-22.2983-5.5095-45.2723-1.3535-59.0215,28.3198c-0.6691,1.3458-1.2274,2.6534-1.8199,4.0413
		c-12.8159,28.9165-17.1327,54.0321-17.9047,73.2828c-71.0841,32.7204-84.7706,103.1953-84.7706,103.1953
		c10.3383,38.5054,23.0508,57.7523,32.9153,67.4179v1.2311c-122.0584,132.2299-20.1035,327.0394-20.1035,327.0394
		c-12.8119-71.463,25.1728-146.9665,48.3082-224.0948c6.8286,60.4513,24.6183,138.0948,71.1835,166.096
		c0,0,56.4102-105.4896,54.9232-226.8589c51.9328,33.5543,161.758,86.1174,272.3763,25.7507c0,0-68.0561-99.4289-225.8723-139.5983
		c0-0.2791,0.195-0.4741,0.2561-0.7494c68.2973-8.3236,219.4984-42.1144,239.0428-178.0214c0,0-100.4782-10.8543-195.0758,30.9765
		c51.0534-64.2083,113.9306-125.2062,130.1393-201.7864L-245.0688-324.4232z"/>

		<linearGradient id="SVGID_40_" gradientUnits="userSpaceOnUse" x1="-1051.4689" y1="-159.6144" x2="-1098.764" y2="-817.9105" gradientTransform="matrix(0.3359 -0.9419 -0.9419 -0.3359 -441.1254 -1099.3842)">
		<stop  offset="0" style="stop-color:#739A3F"/>
		<stop  offset="0.135" style="stop-color:#82A43D"/>
		<stop  offset="0.5098" style="stop-color:#A8BB39"/>
		<stop  offset="0.8114" style="stop-color:#BFCA36"/>
		<stop  offset="1" style="stop-color:#C8CF35"/>
	</linearGradient>
	<path fill="url(#SVGID_40_)" d="M-268.7945-389.8843c0,0-148.3525,31.455-242.8092,172.0391
		c-22.3014-5.3833-45.3608-1.5025-59.0215,28.2814c-0.7341,1.4682-1.4452,2.6955-1.9462,3.9266
		c-12.7086,29.0308-17.0292,54.1088-17.9047,73.5201C-661.438-79.4805-675.1292-9.0079-675.1292-9.0079
		c10.2812,38.5054,23.2121,57.7177,32.7971,67.4633c0,0.4359,0.1032,0.7914,0.1032,1.1088
		c-121.9488,132.3004-14.6779,378.8133-14.6779,378.8133c-12.9724-71.3401,19.6674-198.529,42.9977-275.7041
		c6.7368,60.3746,24.5198,138.0556,71.1874,166.182c0,0,56.349-105.6462,54.8809-226.9451
		c51.7918,33.4353,161.6327,86.1174,272.4312,25.5941c0,0-68.0679-99.3114-226.0054-139.4808
		c0.1223-0.2371,0.2791-0.4741,0.2791-0.7494c68.3544-8.358,219.4123-42.2295,239.1446-178.0214
		c0,0-100.5565-10.8543-195.2716,31.0188c51.2101-64.13,112.2862-153.6301,128.4949-230.132L-268.7945-389.8843z"/>

		<linearGradient id="SVGID_41_" gradientUnits="userSpaceOnUse" x1="-1122.3182" y1="-198.1297" x2="-1091.4668" y2="-341.5814" gradientTransform="matrix(0.3359 -0.9419 -0.9419 -0.3359 -441.1254 -1099.3842)">
		<stop  offset="0" style="stop-color:#FFFFFF"/>
		<stop  offset="0.1286" style="stop-color:#FAFBEC"/>
		<stop  offset="0.3902" style="stop-color:#ECF2BA"/>
		<stop  offset="0.7578" style="stop-color:#D6E36A"/>
		<stop  offset="1" style="stop-color:#C7D932"/>
	</linearGradient>
	<path opacity="0.25" fill="url(#SVGID_41_)" enable-background="new    " d="M-607.5716,5.7797
		c-7.1115,56.5628-16.1038,124.8616,13.963,135.5578c40.7418,14.4985,87.3468-41.2773,117.0157-124.6268
		c10.6328-29.3902,4.1828-58.7044,5.4904-84.3322c-75.4448,18.1663-92.3738,151.281-136.4427,73.4481L-607.5716,5.7797z"/>

		<linearGradient id="SVGID_42_" gradientUnits="userSpaceOnUse" x1="-1034.1215" y1="-740.6846" x2="-1172.1703" y2="-241.5793" gradientTransform="matrix(0.3359 -0.9419 -0.9419 -0.3359 -441.1254 -1099.3842)">
		<stop  offset="0" style="stop-color:#FFFFFF"/>
		<stop  offset="0.2641" style="stop-color:#FFFFFF"/>
		<stop  offset="0.414" style="stop-color:#DAEECE"/>
		<stop  offset="0.6153" style="stop-color:#ACD993"/>
		<stop  offset="0.7872" style="stop-color:#8BCA68"/>
		<stop  offset="0.9209" style="stop-color:#77C04E"/>
		<stop  offset="1" style="stop-color:#6FBD44"/>
	</linearGradient>
	<path opacity="0.22" fill="url(#SVGID_42_)" enable-background="new    " d="M-465.4129,107.1035
		c0,0,110.2347,76.8879,236.2944,14.7351c0,0-35.2174-38.7427-65.0626-54.0359c0,0-25.6833,71.882-171.2483,39.308
		L-465.4129,107.1035z"/>

		<linearGradient id="SVGID_43_" gradientUnits="userSpaceOnUse" x1="-837.1567" y1="-663.0206" x2="-956.4911" y2="-231.7258" gradientTransform="matrix(0.3359 -0.9419 -0.9419 -0.3359 -441.1254 -1099.3842)">
		<stop  offset="0" style="stop-color:#FFFFFF"/>
		<stop  offset="0.2641" style="stop-color:#FFFFFF"/>
		<stop  offset="0.414" style="stop-color:#DAEECE"/>
		<stop  offset="0.6153" style="stop-color:#ACD993"/>
		<stop  offset="0.7872" style="stop-color:#8BCA68"/>
		<stop  offset="0.9209" style="stop-color:#77C04E"/>
		<stop  offset="1" style="stop-color:#6FBD44"/>
	</linearGradient>
	<path opacity="0.22" fill="url(#SVGID_43_)" enable-background="new    " d="M-427.0445-26.0895
		c0,0,176.1265-11.2904,216.476-156.3081c0,0-42.7072-1.6211-60.9869-1.3114c-0.0783,0-16.9134,107.9013-155.5094,157.6236
		L-427.0445-26.0895z"/>

		<linearGradient id="SVGID_44_" gradientUnits="userSpaceOnUse" x1="-1254.9603" y1="-423.9545" x2="-1293.3289" y2="-285.4359" gradientTransform="matrix(0.3359 -0.9419 -0.9419 -0.3359 -441.1254 -1099.3842)">
		<stop  offset="0" style="stop-color:#FFFFFF"/>
		<stop  offset="0.2641" style="stop-color:#FFFFFF"/>
		<stop  offset="0.414" style="stop-color:#DAEECE"/>
		<stop  offset="0.6153" style="stop-color:#ACD993"/>
		<stop  offset="0.7872" style="stop-color:#8BCA68"/>
		<stop  offset="0.9209" style="stop-color:#77C04E"/>
		<stop  offset="1" style="stop-color:#6FBD44"/>
	</linearGradient>
	<path opacity="0.22" fill="url(#SVGID_44_)" enable-background="new    " d="M-572.1631,286.8868
		c0,0,19.95,29.5092,26.9589,32.0439c0,0,40.2101-54.422,50.8279-195.9214c0,0-46.4962,192.7032-77.786,163.8877L-572.1631,286.8868
		z"/>

		<linearGradient id="SVGID_45_" gradientUnits="userSpaceOnUse" x1="-715.0963" y1="-484.1801" x2="-777.7389" y2="-257.8833" gradientTransform="matrix(0.3359 -0.9419 -0.9419 -0.3359 -441.1254 -1099.3842)">
		<stop  offset="0" style="stop-color:#FFFFFF"/>
		<stop  offset="0.2641" style="stop-color:#FFFFFF"/>
		<stop  offset="0.414" style="stop-color:#DAEECE"/>
		<stop  offset="0.6153" style="stop-color:#ACD993"/>
		<stop  offset="0.7872" style="stop-color:#8BCA68"/>
		<stop  offset="0.9209" style="stop-color:#77C04E"/>
		<stop  offset="1" style="stop-color:#6FBD44"/>
	</linearGradient>
	<path opacity="0.22" fill="url(#SVGID_45_)" enable-background="new    " d="M-402.6924-165.9383
		c0,0,74.9076-80.096,122.9981-211.3706c0,0-37.4922,7.2873-59.2432,23.6091c0-0.0783,34.6098,28.1107-63.7385,187.6918
		L-402.6924-165.9383z"/>
	<path opacity="0.63" fill="#488D41" enable-background="new    " d="M-557.865-72.5231c0,0,78.1-81.3174,89.9229-1.8582
		c11.7877,79.4226-53.9937,154.1704-79.446,170.1363c-25.5941,15.8062-87.151,11.1723-57.4006-65.873l46.9034-102.4201
		L-557.865-72.5231z"/>

		<linearGradient id="SVGID_46_" gradientUnits="userSpaceOnUse" x1="-1062.2946" y1="-296.3273" x2="-1083.4365" y2="-55.3883" gradientTransform="matrix(0.3359 -0.9419 -0.9419 -0.3359 -441.1254 -1099.3842)">
		<stop  offset="0" style="stop-color:#71A642"/>
		<stop  offset="0.3659" style="stop-color:#7CAF42"/>
		<stop  offset="1" style="stop-color:#99C841"/>
	</linearGradient>
	<path fill="url(#SVGID_46_)" d="M-557.865-72.5231c-60.543-5.5439-169.0088-64.9248-169.0088-64.9248
		C-774.326-116.8057-754.524-67.251-754.524-67.251c81.4819,26.0216,126.6862,68.4116,149.7385,97.1269
		c-3.7469,28.2047,1.9614,50.6251,17.1327,57.8744c24.4195,11.3288,63.9155-21.1128,88.2159-72.6901
		c24.4195-51.4975,24.4195-102.6393,0-114.2438c-15.9816-7.4387-38.1021,3.8369-58.4296,26.7013L-557.865-72.5231z"/>
	<path opacity="0.38" fill="#FFFFFF" enable-background="new    " d="M336.6427,298.2407
		c-10.0322,83.9798-77.0562,145.0246-149.3392,136.2234c-72.3917-8.557-123.0451-83.5334-112.8578-167.5993
		c10.1168-83.8545,76.7736-144.9464,149.3313-136.3486c72.1952,8.6916,122.7005,83.784,112.8344,167.6463L336.6427,298.2407z"/>
	<path opacity="0.34" fill="#892924" enable-background="new    " d="M927.1244,208.5058
		c-27.0545-67.8189-80.6989-146.6924-146.489-201.113c-15.4539-12.7931-31.0996-23.8079-47.8611-33.5543
		C681.1282-57.972,622.1011-74.8447,560.6256-78.1327c15.7679-16.1233,29.4779-32.6445,40.0081-49.4404
		c0,0-137.531-19.3651-262.9252,72.2923c-17.5344-11.6421-38.5626-15.4045-59.6292,5.9836c-1.0935,0.91-1.9805,1.8238-2.9211,2.814
		c-20.1035,21.036-31.4895,41.159-38.3864,57.5956c-13.3584,1.1088-25.5017,3.9228-36.2613,8.0409
		c-38.4483-32.7549-36.4445-33.061-36.4445-33.061c-47.2573,3.0893-46.6912,43.0744-46.6912,43.0744
		c21.9006,24.4579,10.3078,10.5106,25.028,30.1129c-7.2109,8.2853-10.7204,14.3036-10.7204,14.3036
		c-2.1946,24.0836-0.6576,41.04,2.2405,53.2788c-9.4668,11.8448-17.9627,24.0029-26.0599,36.3263
		C-5.4332,254.8889,7.5415,464.6386,7.5415,464.6386c2.6687-15.8743,8.8091-33.8754,17.182-52.7973
		c-0.2141,4.871-0.2141,9.4285,0,13.7828c-1.5217,96.7354,28.7058,188.7489,90.6981,258.2349l-0.4435,0.2753
		c249.5432,273.919,532.3181,244.8217,679.6448,204.5975c57.389-15.6448,94.6681-47.0584,94.6681-47.0584
		c171.0917-224.8857,117.6107-482.1887,37.742-633.3131L927.1244,208.5058z"/>

		<radialGradient id="SVGID_47_" cx="955.0635" cy="373.8551" r="861.963" gradientTransform="matrix(0.893 0.45 0.45 -0.893 -293.614 597.2928)" gradientUnits="userSpaceOnUse">
		<stop  offset="0.2191" style="stop-color:#EA2D2E"/>
		<stop  offset="0.8202" style="stop-color:#B3282E"/>
	</radialGradient>
	<path fill="url(#SVGID_47_)" d="M828.7758,67.639c-15.4844-12.7586-31.0996-23.6898-47.6926-33.512
		C606.4758-73.422,345.5787-11.3099,191.8467,175.072C42.5232,355.5052,34.0353,599.0895,163.5003,744.2238l-0.237,0.1606
		c249.4571,273.9973,532.0519,244.8452,679.5745,204.7463c57.4804-15.7217,94.4019-47.1729,94.4019-47.1729
		c171.2795-224.6351,118.0415-482.0086,38.0271-633.0861c-27.1711-67.8885-80.5737-146.896-146.5829-201.3166L828.7758,67.639z"/>

		<radialGradient id="SVGID_48_" cx="-159.2404" cy="-1290.4513" r="56.019" gradientTransform="matrix(0.7543 -0.5838 -0.6661 -0.8606 -66.616 -648.9526)" gradientUnits="userSpaceOnUse">
		<stop  offset="0.2191" style="stop-color:#932F25"/>
		<stop  offset="0.4026" style="stop-color:#993026"/>
		<stop  offset="0.6549" style="stop-color:#AB3129"/>
		<stop  offset="0.9382" style="stop-color:#C7342D"/>
	</radialGradient>
	<path fill="url(#SVGID_48_)" d="M668.725,514.9046c11.9976,15.4084,10.7361,36.5212-2.7299,47.0123
		c-13.7187,10.545-34.3569,6.3468-46.3546-9.1074c-12.0359-15.4084-10.614-36.5211,2.9363-47.0584
		c13.5464-10.4143,34.2967-6.3425,46.1986,9.1614L668.725,514.9046z"/>
	<path fill="#F9C625" d="M659.9551,518.1151c-18.3448-15.3316-38.7771-9.9406-38.7771-9.9406
		c-8.9234,26.1829,9.1834,41.7894,9.1834,41.7894c8.878,7.9219,22.581,7.0885,30.549-1.8658
		c7.5244-8.7864,6.9662-21.8237-1.1241-29.7379l0.1567-0.2349L659.9551,518.1151z"/>
	<path opacity="0.52" fill="#C0752E" enable-background="new    " d="M620.5688,511.0678c0,0-2.6534,56.9989,37.8281,38.3026
		c0,0.0783-24.2739-0.783-37.8203-38.29L620.5688,511.0678z"/>

		<radialGradient id="SVGID_49_" cx="-37.7135" cy="-1106.7521" r="56.2124" gradientTransform="matrix(0.7543 -0.5838 -0.6661 -0.8606 -66.616 -648.9526)" gradientUnits="userSpaceOnUse">
		<stop  offset="0.2191" style="stop-color:#932F25"/>
		<stop  offset="0.4026" style="stop-color:#993026"/>
		<stop  offset="0.6549" style="stop-color:#AB3129"/>
		<stop  offset="0.9382" style="stop-color:#C7342D"/>
	</radialGradient>
	<path opacity="0.9" fill="url(#SVGID_49_)" enable-background="new    " d="M638.187,285.8689
		c11.761,15.4468,10.5756,36.5251-2.967,47.0201c-13.5503,10.5756-34.3107,6.4195-46.316-9.0268
		c-12.0743-15.4124-10.736-36.605,2.8599-47.0654c13.6247-10.4143,34.2183-6.3425,46.4335,9.0832L638.187,285.8689z"/>
	<path opacity="0.9" fill="#F9C625" enable-background="new    " d="M629.2604,289.236
		c-18.4669-15.4124-38.8304-9.9483-38.8304-9.9483c-9.1074,26.1484,9.1912,41.6367,9.1912,41.6367
		c8.9547,8.0409,22.581,7.2453,30.5107-1.7052c7.7156-8.6368,7.0045-21.7814-1.1929-29.8303l0.3132-0.1566L629.2604,289.236z"/>
	<path opacity="0.9" fill="#C0752E" enable-background="new    " d="M589.9524,282.267c0,0-2.8905,56.9222,37.8743,38.2297
		c0,0-24.5871-0.8613-37.8986-38.2118L589.9524,282.267z"/>

		<radialGradient id="SVGID_50_" cx="81.6892" cy="-889.4171" r="56.2124" gradientTransform="matrix(0.8962 -0.3267 -0.3727 -1.0225 -61.1165 -325.5258)" gradientUnits="userSpaceOnUse">
		<stop  offset="0.2191" style="stop-color:#932F25"/>
		<stop  offset="0.4026" style="stop-color:#993026"/>
		<stop  offset="0.6549" style="stop-color:#AB3129"/>
		<stop  offset="0.9382" style="stop-color:#C7342D"/>
	</radialGradient>
	<path opacity="0.43" fill="url(#SVGID_50_)" enable-background="new    " d="M351.8335,518.1151
		c6.6756,18.4207-0.887,37.9893-17.0371,44.0532c-16.1037,5.7809-34.5942-4.3586-41.4763-22.8566
		c-6.5074-18.268,1.17-37.951,17.2281-43.8543c16.2087-5.8727,34.6098,4.2283,41.3439,22.6295L351.8335,518.1151z"/>
	<path opacity="0.43" fill="#F9C625" enable-background="new    " d="M342.5938,518.6631
		c-12.8315-20.2788-34.0281-21.357-34.0281-21.357c-16.3567,22.3053-4.0375,42.6305-4.0375,42.6305
		c6.1786,10.2162,19.4919,13.5809,29.784,7.4861c9.9256-5.8651,13.2669-18.5812,7.792-28.6448l0.5482-0.0782L342.5938,518.6631z"/>
	<path opacity="0.43" fill="#C0752E" enable-background="new    " d="M307.0443,500.0271c0,0-19.7746,53.3971,24.5386,47.8461
		c0.0783,0-23.021-8.1434-24.5088-47.843L307.0443,500.0271z"/>

		<radialGradient id="SVGID_51_" cx="-11.2469" cy="-1380.5001" r="56.2508" gradientTransform="matrix(0.7543 -0.5838 -0.6661 -0.8606 -66.616 -648.9526)" gradientUnits="userSpaceOnUse">
		<stop  offset="0.2191" style="stop-color:#932F25"/>
		<stop  offset="0.4026" style="stop-color:#993026"/>
		<stop  offset="0.6549" style="stop-color:#AB3129"/>
		<stop  offset="0.9382" style="stop-color:#C7342D"/>
	</radialGradient>
	<path opacity="0.9" fill="url(#SVGID_51_)" enable-background="new    " d="M840.4431,505.9781
		c11.9669,15.4539,10.736,36.5212-2.9211,47.0584c-13.5118,10.5372-34.2733,6.4997-46.3162-8.9468
		c-11.9975-15.4922-10.6899-36.6128,2.8981-47.0655c13.7814-10.6492,34.3751-6.4991,46.3553,8.9265L840.4431,505.9781z"/>
	<path opacity="0.9" fill="#F9C625" enable-background="new    " d="M831.5165,509.2668
		c-18.1381-15.2095-38.662-9.8646-38.662-9.8646c-9.077,26.2205,9.2372,41.7134,9.2372,41.7134
		c8.7785,7.7997,22.4509,7.0886,30.3808-1.8199c7.7156-8.6407,7.0886-21.7853-1.1088-29.7535l0.1566-0.3131L831.5165,509.2668z"/>
	<path opacity="0.9" fill="#C0752E" enable-background="new    " d="M792.2869,502.2979c0,0-2.7299,57.2056,37.8281,38.3864
		c0,0-24.4305-0.9396-37.8202-38.3683L792.2869,502.2979z"/>

		<radialGradient id="SVGID_52_" cx="-125.0216" cy="-1514.7122" r="56.3087" gradientTransform="matrix(0.7543 -0.5838 -0.6661 -0.8606 -66.616 -648.9526)" gradientUnits="userSpaceOnUse">
		<stop  offset="0.2191" style="stop-color:#932F25"/>
		<stop  offset="0.4026" style="stop-color:#993026"/>
		<stop  offset="0.6549" style="stop-color:#AB3129"/>
		<stop  offset="0.9382" style="stop-color:#C7342D"/>
	</radialGradient>
	<path opacity="0.9" fill="url(#SVGID_52_)" enable-background="new    " d="M844.1234,687.9539
		c11.8754,15.6072,10.6061,36.5282-3.0893,47.1422c-13.5503,10.4221-34.1502,6.538-46.2017-8.9924
		c-11.9521-15.5228-10.8051-36.605,2.8522-47.1343c13.5465-10.4926,34.3751-6.4209,46.4335,9.0048L844.1234,687.9539z"/>
	<path opacity="0.9" fill="#F9C625" enable-background="new    " d="M835.0402,691.3992
		c-18.337-15.4468-38.7459-9.9789-38.7459-9.9789c-8.9084,26.2134,9.3133,41.7894,9.3133,41.7894
		c8.7175,7.8765,22.4282,7.0045,30.419-1.8658c7.7691-8.6328,7.0504-21.7095-1.147-29.8302l0.2349-0.1567L835.0402,691.3992z"/>
	<path opacity="0.9" fill="#C0752E" enable-background="new    " d="M795.6539,684.2736c0,0-2.684,57.1979,37.9965,38.2563
		c0.0784,0-24.4304-0.7047-37.9769-38.29L795.6539,684.2736z"/>

		<radialGradient id="SVGID_53_" cx="108.4006" cy="-1418.3208" r="48.5528" gradientTransform="matrix(0.7543 -0.5838 -0.6661 -0.8606 -66.616 -648.9526)" gradientUnits="userSpaceOnUse">
		<stop  offset="0.2191" style="stop-color:#932F25"/>
		<stop  offset="0.4026" style="stop-color:#993026"/>
		<stop  offset="0.6549" style="stop-color:#AB3129"/>
		<stop  offset="0.9382" style="stop-color:#C7342D"/>
	</radialGradient>
	<path opacity="0.43" fill="url(#SVGID_53_)" enable-background="new    " d="M956.4879,474.1872
		c10.2625,13.2747,9.3063,31.4973-2.577,40.6423c-11.6921,8.878-29.7456,5.4292-39.9235-7.7615
		c-10.4221-13.4736-9.3133-31.6499,2.4088-40.8412c11.8238-8.9265,29.52-5.6378,40.091,7.9869L956.4879,474.1872z"/>
	<path opacity="0.43" fill="#F9C625" enable-background="new    " d="M948.8141,476.8494
		c-15.9667-13.1909-33.4775-8.557-33.4775-8.557c-7.7538,22.7031,7.8835,36.0084,7.8835,36.0084
		c7.6926,6.8591,19.5678,6.1404,26.2666-1.4605c6.6527-7.4862,6.1404-18.8185-0.9941-25.7162l0.3914-0.3132L948.8141,476.8494z"/>
	<path opacity="0.43" fill="#C0752E" enable-background="new    " d="M914.8307,470.8985c0,0-2.3781,49.2376,32.7666,33.0797
		c0,0-21.1418-0.7047-32.7305-33.0438L914.8307,470.8985z"/>

		<radialGradient id="SVGID_54_" cx="-208.8063" cy="-1637.6484" r="44.9649" gradientTransform="matrix(0.7543 -0.5838 -0.6661 -0.8606 -66.616 -648.9526)" gradientUnits="userSpaceOnUse">
		<stop  offset="0.2191" style="stop-color:#932F25"/>
		<stop  offset="0.4026" style="stop-color:#993026"/>
		<stop  offset="0.6549" style="stop-color:#AB3129"/>
		<stop  offset="0.9382" style="stop-color:#C7342D"/>
	</radialGradient>
	<path opacity="0.43" fill="url(#SVGID_54_)" enable-background="new    " d="M863.4642,850.5888
		c9.6273,12.4869,8.6329,29.3174-2.3399,37.6754c-10.8128,8.4349-27.4445,5.2304-37.0717-7.2491
		c-9.5052-12.3569-8.5185-29.3174,2.3705-37.5532c10.8842-8.3784,27.2495-5.0896,37.0373,7.204L863.4642,850.5888z"/>
	<path opacity="0.43" fill="#F9C625" enable-background="new    " d="M856.2602,853.2511
		c-14.5824-12.3954-30.9006-7.9603-30.9006-7.9603c-7.2109,20.9445,7.2874,33.4242,7.2874,33.4242
		c7.1727,6.2627,18.0237,5.5822,24.4085-1.537c6.1785-6.8974,5.5363-17.3887-0.9559-23.7736l0.1565-0.0784L856.2602,853.2511z"/>
	<path opacity="0.43" fill="#C0752E" enable-background="new    " d="M824.9391,847.6917c0,0-2.2176,45.552,30.1591,30.5491
		c0,0.0784-19.4973-0.5482-30.1467-30.5381L824.9391,847.6917z"/>

		<radialGradient id="SVGID_55_" cx="-368.2317" cy="-1516.0432" r="51.1125" gradientTransform="matrix(0.7543 -0.5838 -0.6661 -0.8606 -66.616 -648.9526)" gradientUnits="userSpaceOnUse">
		<stop  offset="0.2191" style="stop-color:#932F25"/>
		<stop  offset="0.4026" style="stop-color:#993026"/>
		<stop  offset="0.6549" style="stop-color:#AB3129"/>
		<stop  offset="0.9382" style="stop-color:#C7342D"/>
	</radialGradient>
	<path opacity="0.43" fill="url(#SVGID_55_)" enable-background="new    " d="M661.8343,834.615
		c10.9044,14.1462,9.6735,33.2481-2.6917,42.8372c-12.2811,9.6117-31.1378,5.735-42.0651-8.2045
		c-10.8199-14.0162-9.8262-33.2325,2.6534-42.8981c12.2152-9.3964,31.0079-5.7943,42.0486,8.3001L661.8343,834.615z"/>
	<path opacity="0.43" fill="#F9C625" enable-background="new    " d="M653.7691,837.6689
		c-16.7614-13.7869-35.3356-8.9546-35.3356-8.9546c-8.1208,23.8423,8.3964,37.7905,8.3964,37.7905
		c8.113,7.3715,20.5545,6.5303,27.7733-1.6211c6.9662-7.853,6.4156-19.6524-1.1088-26.9393l0.2349-0.3132L653.7691,837.6689z"/>
	<path opacity="0.43" fill="#C0752E" enable-background="new    " d="M617.9848,831.4045c0,0-2.4164,51.7683,34.3796,34.7007
		c0,0-22.1597-0.6263-34.3749-34.6881L617.9848,831.4045z"/>

		<radialGradient id="SVGID_56_" cx="-178.7627" cy="-1378.5992" r="51.3451" gradientTransform="matrix(0.6482 -0.6997 -0.7983 -0.7395 -106.555 -810.1716)" gradientUnits="userSpaceOnUse">
		<stop  offset="0.2191" style="stop-color:#932F25"/>
		<stop  offset="0.4026" style="stop-color:#993026"/>
		<stop  offset="0.6549" style="stop-color:#AB3129"/>
		<stop  offset="0.9382" style="stop-color:#C7342D"/>
	</radialGradient>
	<path opacity="0.43" fill="url(#SVGID_56_)" enable-background="new    " d="M868.5538,299.2587
		c13.0757,12.162,15.2173,31.2945,4.481,42.8638c-10.6978,11.5238-29.9141,10.7745-43.1808-1.2273
		c-13.1063-12.2042-14.9338-31.2601-4.3204-42.7416c10.5709-11.5105,29.8333-10.8058,42.9882,1.1745L868.5538,299.2587z"/>
	<path opacity="0.43" fill="#F9C625" enable-background="new    " d="M861.0368,303.5654
		c-18.9257-11.0148-36.3293-3.1313-36.3293-3.1313c-4.1904,24.9934,14.5903,36.2417,14.5903,36.2417
		c9.1458,5.586,21.2654,2.8178,26.9314-6.2168c5.8574-9.073,3.2805-20.6382-5.391-26.5838l0.2349-0.3915L861.0368,303.5654z"/>
	<path opacity="0.43" fill="#C0752E" enable-background="new    " d="M824.7042,303.2521c0,0,6.1097,51.6579,39.6635,28.8742
		c0-0.0783-22.1596,2.7406-39.6996-28.8938L824.7042,303.2521z"/>

		<radialGradient id="SVGID_57_" cx="-613.1895" cy="-1489.1635" r="51.2683" gradientTransform="matrix(0.6482 -0.6997 -0.7983 -0.7395 -106.555 -810.1716)" gradientUnits="userSpaceOnUse">
		<stop  offset="0.2191" style="stop-color:#932F25"/>
		<stop  offset="0.4026" style="stop-color:#993026"/>
		<stop  offset="0.6549" style="stop-color:#AB3129"/>
		<stop  offset="0.9382" style="stop-color:#C7342D"/>
	</radialGradient>
	<path opacity="0.9" fill="url(#SVGID_57_)" enable-background="new    " d="M675.3024,685.0566
		c13.1063,12.1581,14.9339,31.3368,4.4734,42.7072c-10.7745,11.646-29.9907,10.9733-43.0203-1.0706
		c-13.0688-12.2427-15.1711-31.3745-4.5574-42.7455c10.7274-11.5106,29.8333-10.8058,43.0665,1.1744L675.3024,685.0566z"/>
	<path opacity="0.9" fill="#F9C625" enable-background="new    " d="M667.7854,689.4417
		c-18.7731-11.0494-36.4367-3.1276-36.4367-3.1276c-4.1216,24.8753,14.4524,36.1313,14.4524,36.1313
		c9.2679,5.8192,21.4722,2.8446,27.2227-6.2627c5.7733-8.9547,3.0893-20.6382-5.391-26.5876l0.0782-0.0782L667.7854,689.4417z"/>
	<path opacity="0.9" fill="#C0752E" enable-background="new    " d="M631.0613,688.8934c0,0,6.2169,51.8067,40.0081,28.9125
		c0,0-22.0815,2.8972-40.0128-28.8937L631.0613,688.8934z"/>

		<radialGradient id="SVGID_58_" cx="-823.7471" cy="-1407.963" r="45.4512" gradientTransform="matrix(0.6482 -0.6997 -0.7983 -0.7395 -106.555 -810.1716)" gradientUnits="userSpaceOnUse">
		<stop  offset="0.2191" style="stop-color:#932F25"/>
		<stop  offset="0.4026" style="stop-color:#993026"/>
		<stop  offset="0.6549" style="stop-color:#AB3129"/>
		<stop  offset="0.9382" style="stop-color:#C7342D"/>
	</radialGradient>
	<path opacity="0.43" fill="url(#SVGID_58_)" enable-background="new    " d="M474.9255,776.2012
		c11.5317,10.736,13.4657,27.7349,4.0451,37.9893c-9.5435,10.0251-26.6261,9.6273-38.2643-1.1088
		c-11.5692-10.7361-13.3898-27.8038-4.1216-38.027c9.6312-10.3361,26.7795-9.553,38.3683,1.1745L474.9255,776.2012z"/>
	<path opacity="0.43" fill="#F9C625" enable-background="new    " d="M468.1915,779.8813
		c-16.5556-9.9022-32.2389-2.814-32.2389-2.814c-3.6169,22.1448,12.8698,32.1316,12.8698,32.1316
		c8.1976,5.1386,19.1326,2.7299,24.2019-5.4292c4.9169-7.9681,2.8522-18.3065-4.9169-23.6513l0.1566-0.2349L468.1915,779.8813z"/>
	<path opacity="0.43" fill="#C0752E" enable-background="new    " d="M435.8524,779.4899c0,0,5.391,45.9497,35.573,25.5862
		c0.0782,0-19.7324,2.6622-35.5494-25.6051L435.8524,779.4899z"/>

		<radialGradient id="SVGID_59_" cx="16.9421" cy="-1215.9069" r="51.7131" gradientTransform="matrix(0.7543 -0.5838 -0.6661 -0.8606 -66.616 -648.9526)" gradientUnits="userSpaceOnUse">
		<stop  offset="0.2191" style="stop-color:#932F25"/>
		<stop  offset="0.4026" style="stop-color:#993026"/>
		<stop  offset="0.6549" style="stop-color:#AB3129"/>
		<stop  offset="0.9382" style="stop-color:#C7342D"/>
	</radialGradient>
	<path fill="url(#SVGID_59_)" d="M752.4306,351.0951c11.0109,14.223,9.9333,33.5544-2.6152,43.2232
		c-12.5942,9.6195-31.6578,6.018-42.6688-8.2014c-10.805-14.3036-9.6195-33.711,2.6993-43.1809
		c12.5285-9.7096,31.556-5.951,42.5967,8.1434L752.4306,351.0951z"/>
	<path fill="#F9C625" d="M744.2873,354.1489c-16.8837-14.0663-35.6106-9.1152-35.6106-9.1152
		c-8.1592,24.2442,8.5569,38.2682,8.5569,38.2682c8.1207,7.3715,20.6312,6.538,27.8875-1.6249
		c7.1269-7.918,6.454-19.9657-0.9941-27.3332l0.2349-0.2349L744.2873,354.1489z"/>
	<path opacity="0.52" fill="#C0752E" enable-background="new    " d="M708.1897,347.7282c0,0-2.577,52.3729,34.7006,35.2175
		c0.0782-0.0783-22.4729-0.8613-34.6881-35.2363L708.1897,347.7282z"/>

		<radialGradient id="SVGID_60_" cx="148.4918" cy="-1112.6248" r="51.6348" gradientTransform="matrix(0.7543 -0.5838 -0.6661 -0.8606 -66.616 -648.9526)" gradientUnits="userSpaceOnUse">
		<stop  offset="0.2191" style="stop-color:#932F25"/>
		<stop  offset="0.4026" style="stop-color:#993026"/>
		<stop  offset="0.6549" style="stop-color:#AB3129"/>
		<stop  offset="0.9382" style="stop-color:#C7342D"/>
	</radialGradient>
	<path opacity="0.43" fill="url(#SVGID_60_)" enable-background="new    " d="M782.8905,185.4847
		c10.8433,14.1353,9.704,33.5504-2.707,43.1738c-12.3954,9.6274-31.3211,5.9836-42.5388-8.2359
		c-10.9734-14.2268-9.8262-33.5543,2.6534-43.2232c12.4503-9.7096,31.3994-5.8727,42.5966,8.3001L782.8905,185.4847z"/>
	<path opacity="0.43" fill="#F9C625" enable-background="new    " d="M774.5904,188.3819
		c-16.8305-13.9019-35.5346-8.9891-35.5346-8.9891c-8.2359,24.0836,8.3276,38.2259,8.3276,38.2259
		c8.2734,7.2874,20.9601,6.5342,28.2016-1.4682c7.1268-8.0824,6.2933-20.1607-1.0323-27.4483l0.0784-0.2349L774.5904,188.3819z"/>
	<path opacity="0.43" fill="#C0752E" enable-background="new    " d="M738.4146,182.1177c0,0-2.3323,52.2538,34.739,35.1792
		c0,0-22.1596-0.7831-34.7665-35.158L738.4146,182.1177z"/>

		<radialGradient id="SVGID_61_" cx="-365.0996" cy="-1274.7128" r="51.5768" gradientTransform="matrix(0.7543 -0.5838 -0.6661 -0.8606 -66.616 -648.9526)" gradientUnits="userSpaceOnUse">
		<stop  offset="0.2191" style="stop-color:#932F25"/>
		<stop  offset="0.4026" style="stop-color:#993026"/>
		<stop  offset="0.6549" style="stop-color:#AB3129"/>
		<stop  offset="0.9382" style="stop-color:#C7342D"/>
	</radialGradient>
	<path fill="url(#SVGID_61_)" d="M503.3495,624.7634c11.011,14.3372,9.8184,33.5464-2.5387,43.1738
		c-12.4415,9.6658-31.5278,5.9033-42.5466-8.1592c-10.8887-14.2997-9.78-33.6304,2.707-43.296
		c12.2152-9.553,31.2429-5.8727,42.2835,8.3L503.3495,624.7634z"/>
	<path fill="#F9C625" d="M495.2843,627.8956c-16.9525-14.1391-35.5729-9.2296-35.5729-9.2296
		c-8.2281,24.0797,8.3964,38.2643,8.3964,38.2643c8.167,7.3256,20.6845,6.538,28.0481-1.667
		c7.058-7.8382,6.3392-19.9203-1.1852-27.2455l0.3132-0.1566L495.2843,627.8956z"/>
	<path opacity="0.52" fill="#C0752E" enable-background="new    " d="M459.1083,621.3965c0,0-2.3323,52.3267,34.7852,35.0985
		c0.0783,0-22.3163-0.7047-34.7664-35.0797L459.1083,621.3965z"/>

		<radialGradient id="SVGID_62_" cx="-577.0668" cy="-1198.3671" r="48.5528" gradientTransform="matrix(0.7543 -0.5838 -0.6661 -0.8606 -66.616 -648.9526)" gradientUnits="userSpaceOnUse">
		<stop  offset="0.2191" style="stop-color:#932F25"/>
		<stop  offset="0.4026" style="stop-color:#993026"/>
		<stop  offset="0.6549" style="stop-color:#AB3129"/>
		<stop  offset="0.9382" style="stop-color:#C7342D"/>
	</radialGradient>
	<path opacity="0.43" fill="url(#SVGID_62_)" enable-background="new    " d="M292.7932,684.9783
		c10.3383,13.3898,9.3674,31.6954-2.4546,40.6885c-11.7611,9.1074-29.593,5.5822-40.0918-7.8459
		c-10.2922-13.2747-9.3595-31.6116,2.5158-40.719c11.5888-9.1614,29.5984-5.7161,40.0128,7.8303L292.7932,684.9783z"/>
	<path opacity="0.43" fill="#F9C625" enable-background="new    " d="M284.963,687.6406
		c-15.7679-13.1447-33.4697-8.4348-33.4697-8.4348c-7.7691,22.6954,7.9603,36.2457,7.9603,36.2457
		c7.8609,6.6603,19.6447,5.9874,26.5039-1.6594c6.7292-7.5626,6.1786-18.8953-1.1088-25.9072l0.0782-0.2349L284.963,687.6406z"/>
	<path opacity="0.43" fill="#C0752E" enable-background="new    " d="M250.9796,681.6896c0,0-2.2787,49.3903,32.8731,33.2325
		c0,0-21.2201-0.7831-32.8872-33.2004L250.9796,681.6896z"/>
	<path opacity="0.31" fill="#8B3624" enable-background="new    " d="M648.7578-3.6949c0,0-130.0453-44.2443-255.4237,47.3794
		c-17.5492-11.5692-38.7458-15.3739-59.7748,6.018c-0.9329,0.8679-1.9576,1.8238-2.8293,2.814
		c-20.0651,20.9945-31.4895,41.1927-38.3488,57.5533c-71.4592,5.9415-105.3016,62.5467-105.3016,62.5467
		c-2.9593,36.2878,1.9193,56.8878,7.3485,68.2973c-0.1223,0.3938-0.1223,0.6347-0.2447,1.0323
		C47.6317,317.7636,74.6227,517.4468,74.6227,517.4468c11.3093-65.6013,67.4829-118.754,111.6285-177.9745
		c-12.8847,54.1088-21.7933,126.6392,9.4747,165.4147c0,0,81.4819-73.4856,118.1902-178.2563
		c34.1581,44.9168,112.4193,124.6972,226.624,107.0322c0,0-27.6503-106.7111-151.007-190.73
		c0.2753-0.1606,0.2753-0.4014,0.4359-0.4779c61.3574,14.0624,202.1075,32.2843,261.4844-78.71c0,0-83.2281-40.845-177.6299-34.3075
		c63.9734-39.3081,137.0299-72.1952,175.0068-133.193L648.7578-3.6949z"/>

		<linearGradient id="SVGID_63_" gradientUnits="userSpaceOnUse" x1="-576.5858" y1="-942.0652" x2="-619.8876" y2="-1545.236" gradientTransform="matrix(0.6369 -0.771 -0.771 -0.6369 -137.9627 -940.8968)">
		<stop  offset="0" style="stop-color:#739A3F"/>
		<stop  offset="0.135" style="stop-color:#82A43D"/>
		<stop  offset="0.5098" style="stop-color:#A8BB39"/>
		<stop  offset="0.8114" style="stop-color:#BFCA36"/>
		<stop  offset="1" style="stop-color:#C8CF35"/>
	</linearGradient>
	<path fill="url(#SVGID_63_)" d="M648.7578-67.3551c0,0-137.4605-19.2547-262.9565,72.4912
		c-17.3425-11.646-38.4326-15.4883-59.6292,5.781c-0.9864,1.0323-1.8046,2.0226-2.7299,2.8943
		c-20.1724,21.0745-31.7572,41.159-38.4483,57.5573c-71.4207,5.9836-105.1998,62.5851-105.1998,62.5851
		c-3.181,36.3294,1.7894,56.8079,7.2797,68.3317c-0.1682,0.4397-0.2676,0.715-0.2676,0.9941
		C40.2546,279.0586,55.6333,524.9318,55.6333,524.9318c11.2944-65.5175,79.0859-164.9449,123.1625-224.1653
		c-12.9763,54.1886-21.7322,126.6392,9.4818,165.3834c0,0,81.5446-73.2868,118.2294-178.225
		c34.1885,45.0014,112.4193,124.6581,226.7806,107.0791c0,0-27.7191-106.7581-151.1165-190.777
		c0.0688-0.1529,0.1529-0.237,0.39-0.4741c61.3573,14.0201,202.2561,32.2083,261.3669-78.7883c0,0-82.9539-40.7613-177.6612-34.2231
		c63.8951-39.4646,144.4686-97.3305,182.4456-158.25L648.7578-67.3551z"/>

		<linearGradient id="SVGID_64_" gradientUnits="userSpaceOnUse" x1="-641.4779" y1="-977.1284" x2="-613.1321" y2="-1108.6783" gradientTransform="matrix(0.6369 -0.771 -0.771 -0.6369 -137.9627 -940.8968)">
		<stop  offset="0" style="stop-color:#FFFFFF"/>
		<stop  offset="0.1286" style="stop-color:#FAFBEC"/>
		<stop  offset="0.3902" style="stop-color:#ECF2BA"/>
		<stop  offset="0.7578" style="stop-color:#D6E36A"/>
		<stop  offset="1" style="stop-color:#C7D932"/>
	</linearGradient>
	<path opacity="0.25" fill="url(#SVGID_64_)" enable-background="new    " d="M233.2831,167.5533
		c-23.5825,46.5456-52.6328,102.6785-30.2891,121.1814c30.564,25.1924,88.3178-8.362,139.8019-70.7896
		c18.3142-22.0266,22.1448-49.2415,31.015-71.0269c-70.6292-7.9086-126.6939,101.4805-140.4753,20.5937L233.2831,167.5533z"/>

		<linearGradient id="SVGID_65_" gradientUnits="userSpaceOnUse" x1="-560.7282" y1="-1474.3671" x2="-687.1881" y2="-1017.2322" gradientTransform="matrix(0.6369 -0.771 -0.771 -0.6369 -137.9627 -940.8968)">
		<stop  offset="0" style="stop-color:#FFFFFF"/>
		<stop  offset="0.2641" style="stop-color:#FFFFFF"/>
		<stop  offset="0.414" style="stop-color:#DAEECE"/>
		<stop  offset="0.6153" style="stop-color:#ACD993"/>
		<stop  offset="0.7872" style="stop-color:#8BCA68"/>
		<stop  offset="0.9209" style="stop-color:#77C04E"/>
		<stop  offset="1" style="stop-color:#6FBD44"/>
	</linearGradient>
	<path opacity="0.22" fill="url(#SVGID_65_)" enable-background="new    " d="M324.1926,299.2587
		c0,0,71.0309,100.8149,198.8265,86.5951c0,0-18.2986-44.4047-39.2587-66.8251c0-0.0782-44.3194,53.794-159.5812-19.8106
		L324.1926,299.2587z"/>

		<linearGradient id="SVGID_66_" gradientUnits="userSpaceOnUse" x1="-380.1862" y1="-1403.1965" x2="-489.4192" y2="-1008.2346" gradientTransform="matrix(0.6369 -0.771 -0.771 -0.6369 -137.9627 -940.8968)">
		<stop  offset="0" style="stop-color:#FFFFFF"/>
		<stop  offset="0.2641" style="stop-color:#FFFFFF"/>
		<stop  offset="0.414" style="stop-color:#DAEECE"/>
		<stop  offset="0.6153" style="stop-color:#ACD993"/>
		<stop  offset="0.7872" style="stop-color:#8BCA68"/>
		<stop  offset="0.9209" style="stop-color:#77C04E"/>
		<stop  offset="1" style="stop-color:#6FBD44"/>
	</linearGradient>
	<path opacity="0.22" fill="url(#SVGID_66_)" enable-background="new    " d="M398.8936,196.6037
		c0,0,155.1648,45.1581,235.2295-67.1039c0,0-36.4523-14.7734-52.2123-20.2788c0,0-48.2346,87.6991-182.9937,87.386
		L398.8936,196.6037z"/>

		<linearGradient id="SVGID_67_" gradientUnits="userSpaceOnUse" x1="-763.0419" y1="-1184.1688" x2="-798.1218" y2="-1057.4741" gradientTransform="matrix(0.6369 -0.771 -0.771 -0.6369 -137.9627 -940.8968)">
		<stop  offset="0" style="stop-color:#FFFFFF"/>
		<stop  offset="0.2641" style="stop-color:#FFFFFF"/>
		<stop  offset="0.414" style="stop-color:#DAEECE"/>
		<stop  offset="0.6153" style="stop-color:#ACD993"/>
		<stop  offset="0.7872" style="stop-color:#8BCA68"/>
		<stop  offset="0.9209" style="stop-color:#77C04E"/>
		<stop  offset="1" style="stop-color:#6FBD44"/>
	</linearGradient>
	<path opacity="0.22" fill="url(#SVGID_67_)" enable-background="new    " d="M176.2004,420.9412c0,0,7.9446,31.5278,13.313,35.9707
		c0,0,51.3025-34.3835,104.7535-152.7844c0,0-100.071,151.3593-118.0806,116.8278L176.2004,420.9412z"/>

		<linearGradient id="SVGID_68_" gradientUnits="userSpaceOnUse" x1="-268.1938" y1="-1239.6157" x2="-325.6687" y2="-1031.8772" gradientTransform="matrix(0.6369 -0.771 -0.771 -0.6369 -137.9627 -940.8968)">
		<stop  offset="0" style="stop-color:#FFFFFF"/>
		<stop  offset="0.2641" style="stop-color:#FFFFFF"/>
		<stop  offset="0.414" style="stop-color:#DAEECE"/>
		<stop  offset="0.6153" style="stop-color:#ACD993"/>
		<stop  offset="0.7872" style="stop-color:#8BCA68"/>
		<stop  offset="0.9209" style="stop-color:#77C04E"/>
		<stop  offset="1" style="stop-color:#6FBD44"/>
	</linearGradient>
	<path opacity="0.22" fill="url(#SVGID_68_)" enable-background="new    " d="M463.415,83.6127
		c0,0,89.4531-45.6702,172.1566-143.6309c0,0-34.8619-5.5439-58.5894,1.7855c0,0,21.0635,35.158-113.6173,141.8064L463.415,83.6127z
		"/>
	<path opacity="0.63" fill="#488D41" enable-background="new    " d="M300.6235,115.7169c0,0,92.8202-45.6396,78.1955,26.5384
		c-14.7961,72.0558-94.7307,115.99-121.753,121.6904c-26.9315,5.6242-78.3577-17.5875-28.7904-74.632l72.3519-73.6046
		L300.6235,115.7169z"/>

		<linearGradient id="SVGID_69_" gradientUnits="userSpaceOnUse" x1="-586.4534" y1="-1067.2725" x2="-605.8726" y2="-846.457" gradientTransform="matrix(0.6369 -0.771 -0.771 -0.6369 -137.9627 -940.8968)">
		<stop  offset="0" style="stop-color:#71A642"/>
		<stop  offset="0.3659" style="stop-color:#7CAF42"/>
		<stop  offset="1" style="stop-color:#99C841"/>
	</linearGradient>
	<path fill="url(#SVGID_69_)" d="M300.6235,115.7169C250.2928,92.0617,175.2059,6.8603,175.2059,6.8603
		c-47.1344,3.0128-45.6051,51.9367-45.6051,51.9367c62.0996,47.9261,87.7304,98.5519,98.6772,130.5151
		c-12.0281,23.097-14.1618,44.2866-3.3875,55.0641c17.5571,17.5454,61.6556,1.9805,98.826-34.9379
		c37.0717-36.7655,52.9617-80.8868,35.6724-98.3249c-11.5105-11.4323-34.14-8.6916-58.8054,4.6198L300.6235,115.7169z"/>
</g>
</svg>
