<?xml version="1.0" encoding="utf-8"?>
<!-- Generator: Adobe Illustrator 26.3.1, SVG Export Plug-In . SVG Version: 6.00 Build 0)  -->
<svg version="1.1" id="Layer_1" xmlns="http://www.w3.org/2000/svg" xmlns:xlink="http://www.w3.org/1999/xlink" x="0px" y="0px"
	 viewBox="0 0 900 900" style="enable-background:new 0 0 2376 2500;" xml:space="preserve">
<style type="text/css">
  .primary-fill{fill:darkturquoise;}
  .accent-fill{fill:orangered;}
  .tertiary-fill{fill:#b00050;}
</style>
<rect class="adaptive-cls-1 accent-fill" x="437.86" y="286.1" width="168.53" height="28.86" rx="12" ry="12"/>
<rect class="adaptive-cls-3 tertiary-fill" x="438.37" y="246.29" width="361.58" height="28.86" rx="12" ry="12"/>
<rect class="adaptive-cls-3 tertiary-fill" x="631.42" y="650.61" width="197.92" height="28.86" rx="12" ry="12"/>
<rect class="adaptive-cls-3 tertiary-fill" x="631.42" y="733.2" width="54.41" height="28.86" rx="12" ry="12"/>
<rect class="adaptive-cls-2 primary-fill" x="631.42" y="691.91" width="168.53" height="28.86" rx="12" ry="12"/>
<rect class="adaptive-cls-3 tertiary-fill" x="437.86" y="323.96" width="54.41" height="28.86" rx="12" ry="12"/>
<rect class="adaptive-cls-2 primary-fill" x="27.71" y="117.67" width="352" height="28.86" rx="12" ry="12"/>
<rect class="adaptive-cls-3 tertiary-fill" x=".25" y="512.88" width="300.53" height="28.86" rx="12" ry="12"/>
<rect class="adaptive-cls-2 primary-fill" x=".25" y="637.26" width="197.92" height="28.86" rx="12" ry="12"/>
<rect class="adaptive-cls-3 tertiary-fill" x=".25" y="678.55" width="54.41" height="28.86" rx="12" ry="12"/>
<rect class="adaptive-cls-2 primary-fill" y="595.96" width="168.53" height="28.86" rx="12" ry="12"/>
<rect class="adaptive-cls-2 primary-fill" y="554.66" width="168.53" height="28.86" rx="12" ry="12"/>
<rect class="adaptive-cls-3 tertiary-fill" x="301.04" y="745.99" width="248.46" height="28.86" rx="12" ry="12"/>
<rect class="adaptive-cls-3 tertiary-fill" x="301.04" y="869.87" width="54.41" height="28.86" rx="12" ry="12"/>
<rect class="adaptive-cls-2 primary-fill" x="300.79" y="828.58" width="168.53" height="28.86" rx="12" ry="12"/>
<rect class="adaptive-cls-2 primary-fill" x="300.79" y="787.28" width="168.53" height="28.86" rx="12" ry="12"/>
<rect class="adaptive-cls-3 tertiary-fill" x="751.71" y="492.45" width="143.69" height="28.86" rx="12" ry="12"/>
<rect class="adaptive-cls-2 primary-fill" x="27.71" y="241.56" width="197.92" height="28.86" rx="12" ry="12"/>
<rect class="adaptive-cls-2 primary-fill" x="27.46" y="282.86" width="54.41" height="28.86" rx="12" ry="12"/>
<rect class="adaptive-cls-2 primary-fill" x="27.46" y="200.26" width="168.53" height="28.86" rx="12" ry="12"/>
<rect class="adaptive-cls-2 primary-fill" x="27.46" y="158.97" width="168.53" height="28.86" rx="12" ry="12"/>
<rect class="adaptive-cls-3 tertiary-fill" x="27.71" y="324.15" width="352" height="28.86" rx="12" ry="12"/>
<rect class="adaptive-cls-3 tertiary-fill" x="27.71" y="365.45" width="352" height="28.86" rx="12" ry="12"/>
<rect class="adaptive-cls-2 primary-fill" x="438.62" width="404.19" height="28.86" rx="12" ry="12"/>
<rect class="adaptive-cls-2 primary-fill" x="438.62" y="123.89" width="197.92" height="28.86" rx="12" ry="12"/>
<rect class="adaptive-cls-2 primary-fill" x="438.37" y="165.18" width="54.41" height="28.86" rx="12" ry="12"/>
<rect class="adaptive-cls-2 primary-fill" x="438.37" y="82.59" width="168.53" height="28.86" rx="12" ry="12"/>
<rect class="adaptive-cls-2 primary-fill" x="438.37" y="41.3" width="168.53" height="28.86" rx="12" ry="12"/>
<rect class="adaptive-cls-3 tertiary-fill" x="438.62" y="206.48" width="404.19" height="28.86" rx="12" ry="12"/>
</svg>
