<?xml version="1.0" encoding="utf-8"?>
<!-- Generator: Adobe Illustrator 26.3.1, SVG Export Plug-In . SVG Version: 6.00 Build 0)  -->
<svg version="1.1" id="Layer_1" xmlns="http://www.w3.org/2000/svg" xmlns:xlink="http://www.w3.org/1999/xlink" x="0px" y="0px"
	 viewBox="0 0 900 900" style="enable-background:new 0 0 2376 2500;" xml:space="preserve">
<defs><style>.declarative-cls-4{fill:none;stroke-miterlimit:10;stroke-width:20px;}
  .primary-stroke{stroke:darkturquoise;}
  .primary-fill{fill:darkturquoise;}
  .accent-fill{fill:orangered;}
  .tertiary-fill{fill:#b00050;}</style>
</defs>
<rect class="declarative-cls-2 primary-fill" x=".05" y="182.19" width="231.16" height="25.47" rx="12" ry="12"/>
<rect class="declarative-cls-2 primary-fill" x="580.39" y="36.44" width="231.16" height="25.47" rx="12" ry="12"/>
<rect class="declarative-cls-1 accent-fill" x=".05" y="36.44" width="174.64" height="25.47" rx="12" ry="12"/>
<rect class="declarative-cls-1 accent-fill" x="580.39" y="364.39" width="174.64" height="25.47" rx="12" ry="12"/>
<rect class="declarative-cls-2 primary-fill" x=".05" y="0" width="148.71" height="25.47" rx="12" ry="12"/>
<rect class="declarative-cls-2 primary-fill" x="580.39" y="0" width="148.71" height="25.47" rx="12" ry="12"/>
<rect class="declarative-cls-1 accent-fill" x=".05" y="255.07" width="319.67" height="25.47" rx="12" ry="12"/>
<rect class="declarative-cls-1 accent-fill" x="580.39" y="400.83" width="319.67" height="25.47" rx="12" ry="12"/>
<rect class="declarative-cls-2 primary-fill" x=".05" y="218.63" width="231.16" height="25.47" rx="12" ry="12"/>
<rect class="declarative-cls-2 primary-fill" y="72.88" width="148.71" height="25.47" rx="12" ry="12"/>
<rect class="declarative-cls-3 tertiary-fill" x=".05" y="327.95" width="231.16" height="25.47" rx="12" ry="12"/>
<rect class="declarative-cls-1 accent-fill" x=".05" y="291.51" width="174.64" height="25.47" rx="12" ry="12"/>
<rect class="declarative-cls-3 tertiary-fill" x=".05" y="364.39" width="148.71" height="25.47" rx="12" ry="12"/>
<rect class="declarative-cls-3 tertiary-fill" x="580.39" y="583.02" width="231.16" height="25.47" rx="12" ry="12"/>
<rect class="declarative-cls-2 primary-fill" x=".05" y="546.58" width="319.67" height="25.47" rx="12" ry="12"/>
<rect class="declarative-cls-2 primary-fill" x="580.39" y="182.19" width="319.67" height="25.47" rx="12" ry="12"/>
<rect class="declarative-cls-2 primary-fill" x=".05" y="473.7" width="231.16" height="25.47" rx="12" ry="12"/>
<rect class="declarative-cls-2 primary-fill" x="580.39" y="109.32" width="231.16" height="25.47" rx="12" ry="12"/>
<rect class="declarative-cls-2 primary-fill" x=".05" y="510.14" width="174.64" height="25.47" rx="12" ry="12"/>
<rect class="declarative-cls-2 primary-fill" x="580.39" y="145.76" width="174.64" height="25.47" rx="12" ry="12"/>
<rect class="declarative-cls-2 primary-fill" x=".05" y="437.27" width="148.71" height="25.47" rx="12" ry="12"/>
<rect class="declarative-cls-2 primary-fill" x="580.39" y="72.88" width="148.71" height="25.47" rx="12" ry="12"/>
<rect class="declarative-cls-1 accent-fill" x=".05" y="692.34" width="319.67" height="25.47" rx="12" ry="12"/>
<rect class="declarative-cls-1 accent-fill" x="580.39" y="510.14" width="319.67" height="25.47" rx="12" ry="12"/>
<rect class="declarative-cls-1 accent-fill" x=".05" y="655.9" width="231.16" height="25.47" rx="12" ry="12"/>
<rect class="declarative-cls-1 accent-fill" x="580.39" y="473.7" width="231.16" height="25.47" rx="12" ry="12"/>
<rect class="declarative-cls-3 tertiary-fill" x=".05" y="838.09" width="231.16" height="25.47" rx="12" ry="12"/>
<rect class="declarative-cls-3 tertiary-fill" x="580.39" y="655.9" width="231.16" height="25.47" rx="12" ry="12"/>
<rect class="declarative-cls-1 accent-fill" x=".05" y="619.46" width="174.64" height="25.47" rx="12" ry="12"/>
<rect class="declarative-cls-1 accent-fill" x="580.39" y="437.27" width="174.64" height="25.47" rx="12" ry="12"/>
<rect class="declarative-cls-2 primary-fill" x=".05" y="583.02" width="148.71" height="25.47" rx="12" ry="12"/>
<rect class="declarative-cls-2 primary-fill" x="580.39" y="218.63" width="148.71" height="25.47" rx="12" ry="12"/>
<rect class="declarative-cls-2 primary-fill" x=".05" y="801.65" width="319.67" height="25.47" rx="12" ry="12"/>
<rect class="declarative-cls-2 primary-fill" x="580.39" y="291.51" width="319.67" height="25.47" rx="12" ry="12"/>
<rect class="declarative-cls-3 tertiary-fill" x=".05" y="728.78" width="319.67" height="25.47" rx="12" ry="12"/>
<rect class="declarative-cls-3 tertiary-fill" x="580.39" y="619.46" width="319.67" height="25.47" rx="12" ry="12"/>
<rect class="declarative-cls-2 primary-fill" x=".05" y="765.22" width="174.64" height="25.47" rx="12" ry="12"/>
<rect class="declarative-cls-2 primary-fill" x="580.39" y="255.07" width="174.64" height="25.47" rx="12" ry="12"/>
<rect class="declarative-cls-3 tertiary-fill" y="874.53" width="148.71" height="25.47" rx="12" ry="12"/>
<rect class="declarative-cls-3 tertiary-fill" x="580.39" y="692.34" width="148.71" height="25.47" rx="12" ry="12"/>
<rect class="declarative-cls-2 primary-fill" x=".05" y="145.76" width="148.71" height="25.47" rx="12" ry="12"/>
<g style="transform: translate(-40px, 0)">
<line class="declarative-cls-4 primary-stroke" x1="372.65" y1="450" x2="477.46" y2="450"/>
<polygon class="declarative-cls-2 primary-fill" points="467.83 482.91 524.83 450 467.83 417.09 467.83 482.91"/>
</g>
</svg>
