<?xml version="1.0" encoding="utf-8"?>
<!-- Generator: Adobe Illustrator 25.2.1, SVG Export Plug-In . SVG Version: 6.00 Build 0)  -->
<svg version="1.1" id="Layer_1" xmlns="http://www.w3.org/2000/svg" xmlns:xlink="http://www.w3.org/1999/xlink" x="0px" y="0px"
	 viewBox="0 0 2376 2500" style="enable-background:new 0 0 2376 2500;" xml:space="preserve">
<style type="text/css">
	.st0{fill:#00C4AC;stroke:#00C6AA;stroke-width:50;stroke-miterlimit:10;}
	.st1{fill:#E32286;}
	.st2{fill:#05D8D8;stroke:#05D8D8;stroke-width:50;stroke-miterlimit:10;}
	.st3{fill:url(#SVGID_1_);}
	.st4{fill:#00CC88;stroke:#00CC88;stroke-width:50;stroke-miterlimit:10;}
	.st5{fill:url(#SVGID_2_);}
	.st6{fill:url(#SVGID_3_);}
	.st7{fill:#00B9CC;stroke:#00B9CC;stroke-width:50;stroke-miterlimit:10;}
</style>
<polygon class="st0" points="1282,1629.4 1146.8,1402.1 882.6,1405.3 753.6,1635.8 888.7,1863.2 1152.9,1859.9 "/>
<path class="st1" d="M183.1,1550.5c-46.6-145.1-60-298.3-33.1-455.9c11.6-65.4,29.6-128.1,49.3-191.7c0,0,123.6-405.7,541.9-591.1
	c0,0,144.2-76.1,361-81.5c0,0-29.6-28.7-48.4-41.2c-102.1-68.1-254.4-90.5-346.6,5.4c-27.8,28.7-51.1,60-77,88.7
	c-29.6,32.2-65.4,59.1-106.6,74.3c-35.8,13.4-71.7,10.7-108.4,17c-37.6,6.3-76.1,19.7-106.6,43.9c-33.1,26.9-46.6,62.7-50.2,103.9
	c-3.6,32.2-2.7,65.4-4.5,97.6c-4.5,94.9-34.9,121.8-103,174.7C122.2,816,98,844.7,80.1,875.2c-53.7,94.9,32.2,193.5,36.7,289.3
	c0.9,19.7-0.9,39.4-8.1,58.2c-7.2,20.6-21.5,34-33.1,51.1c-16.1,22.4-26.9,49.3-22.4,77s18.8,53.7,32.2,77.9
	c26,43,58.2,81.5,92.3,118.2C179.6,1546.9,181.3,1548.7,183.1,1550.5"/>
<polygon class="st2" points="1282.1,1063.7 1147,836.4 882.8,839.7 753.7,1070.1 888.9,1297.5 1153.1,1294.3 "/>
<linearGradient id="SVGID_1_" gradientUnits="userSpaceOnUse" x1="460.264" y1="91.4813" x2="583.5396" y2="-39.6623" gradientTransform="matrix(9.0411 0 0 9.0411 -3764.0381 1371.9572)">
	<stop  offset="0" style="stop-color:#E01D84"/>
	<stop  offset="0.401" style="stop-color:#DF1D85"/>
	<stop  offset="0.77" style="stop-color:#932C87"/>
	<stop  offset="1" style="stop-color:#5D2F88"/>
</linearGradient>
<path class="st3" d="M1892.1,1894.4c206-89.6,293.8-244.5,293.8-244.5c192.6-262.4,127.2-539.2,127.2-539.2
	c-122.7,266.9-234.7,340.4-234.7,340.4c301.8-459.5,1.8-737.1,1.8-737.1c122.7,261.5-40.3,580.4-40.3,580.4
	c-137,288.4-331.4,391.4-331.4,391.4c216.8,40.3,376.2-105.7,376.2-105.7c-310.8,335.9-647.6,319.8-647.6,319.8
	c141.5,158.5,353.8,145.1,353.8,145.1c-277.7,65.4-538.3-26.9-752.4-205.1c-40.3-33.1-78.8-69-114.6-107.5c0,0-32.2-34-38.5-43
	l-0.9-0.9c-4.5,165.7,168.4,319.8,168.4,319.8c-216.8-89.6-316.2-283.9-316.2-283.9s-146-249-40.3-532.9s425.4-344.8,425.4-344.8
	C1386,974.6,1610,1014.9,1610,1014.9c472,78.8,445.2-152.3,445.2-152.3c4.5-198.8-295.6-410.2-295.6-410.2
	C1224.8,55.6,741.1,311.8,741.1,311.8C322.9,497.2,199.3,902.9,199.3,902.9c-19.7,63.6-37.6,126.3-49.3,191.7
	c-45.7,266,23.3,517.7,172.9,741.6c232.9,347.5,610.9,467.5,610.9,467.5c559.8,189.9,942.3-89.6,942.3-89.6
	c352-241.8,422.8-521.3,422.8-521.3C2014.8,1915,1892.1,1894.4,1892.1,1894.4L1892.1,1894.4z M1455,587.6
	c26.9,0,48.4,21.5,48.4,48.4s-21.5,48.4-48.4,48.4s-48.4-21.5-48.4-48.4S1428.1,587.6,1455,587.6z"/>
<polygon class="st4" points="1781.2,1903.4 1646.1,1676 1381.8,1679.2 1252.8,1909.8 1387.9,2137.1 1652.1,2133.8 "/>
<radialGradient id="SVGID_2_" cx="595.5679" cy="-104.6177" r="120.4482" gradientTransform="matrix(9.0411 2.160822e-02 -1.808219e-02 7.5602 -3762.5916 1476.7319)" gradientUnits="userSpaceOnUse">
	<stop  offset="0" style="stop-color:#E01D84"/>
	<stop  offset="0.139" style="stop-color:#DE1E85"/>
	<stop  offset="0.285" style="stop-color:#D62085"/>
	<stop  offset="0.434" style="stop-color:#C92386"/>
	<stop  offset="0.586" style="stop-color:#B72786"/>
	<stop  offset="0.739" style="stop-color:#9D2B87"/>
	<stop  offset="0.891" style="stop-color:#7C2E88"/>
	<stop  offset="1" style="stop-color:#5D2F88"/>
</radialGradient>
<path class="st5" d="M2054.2,861.7c4.5-198.8-295.6-410.2-295.6-410.2C1223.9,55.6,740.3,311.8,740.3,311.8
	C322,497.2,198.4,902.9,198.4,902.9c-24.2,69-45.7,174.7-45.7,174.7c-26,132.6-14.3,255.3-14.3,255.3
	c10.7,117.3,36.7,196.2,36.7,196.2c26.9,84.2,39.4,110.2,39.4,110.2c-0.9-2.7-5.4-22.4-5.4-22.4s-37.6-180.9-2.7-354.7
	c0,0,30.5-180.9,154.1-320.7c0,0,200.6-285.7,574.1-173.8c0,0,80.6,28.7,108.4,43c27.8,13.4,76.1,34,76.1,34
	c264.2,128.1,488.1,168.4,488.1,168.4C2081.1,1092.8,2054.2,861.7,2054.2,861.7z M1455,685.3c-26.9,0-48.4-21.5-48.4-48.4
	s21.5-48.4,48.4-48.4s48.4,21.5,48.4,48.4S1481.9,685.3,1455,685.3z"/>
<linearGradient id="SVGID_3_" gradientUnits="userSpaceOnUse" x1="489.6935" y1="-92.1522" x2="543.2994" y2="-92.1522" gradientTransform="matrix(9.0411 0 0 9.0411 -3764.0381 1371.9572)">
	<stop  offset="0" style="stop-color:#E01D84"/>
	<stop  offset="0.238" style="stop-color:#DA1E85"/>
	<stop  offset="0.658" style="stop-color:#C72085"/>
	<stop  offset="0.999" style="stop-color:#B52284"/>
</linearGradient>
<path class="st6" d="M1148.7,501.7l-305.4-94.9c-1.8,0-10.7-4.5-26.9,0c0,0-180,45.7-148.7,144.2c0,0,18.8,61.8,69.9,121.8
	l335.9-16.1L1148.7,501.7z"/>
<polygon class="st7" points="1777.3,1335 1642.2,1107.7 1378.1,1110.8 1249.1,1341.3 1384.2,1568.7 1648.3,1565.4 "/>
</svg>
