<?xml version="1.0" encoding="utf-8"?>
<!-- Generator: Adobe Illustrator 26.3.1, SVG Export Plug-In . SVG Version: 6.00 Build 0)  -->
<svg version="1.1" id="Layer_1" xmlns="http://www.w3.org/2000/svg" xmlns:xlink="http://www.w3.org/1999/xlink" x="0px" y="0px"
	 viewBox="0 0 2376 2500" style="enable-background:new 0 0 2376 2500;" xml:space="preserve">
<style type="text/css">
	.st0{display:none;fill:#E32286;}
	.st1{display:none;fill:url(#SVGID_1_);}
	.st2{display:none;fill:url(#SVGID_00000110471234314303152260000009471334332298675863_);}
	.st3{display:none;fill:url(#SVGID_00000065790062500096816360000006036039981395185538_);}
	.st4{
    fill:#00CED1;
    stroke:#00CED1;
    stroke-width:50;
    stroke-miterlimit:10;
		stroke-linejoin:round;
		stroke-linecap:round;
  }
</style>
<polygon class="st4" points="1901.8,1681.5 1728.7,1782 1729,1982 1902.5,2081.5 2075.7,1980.9 2075.3,1780.9 "/>
<polygon class="st4" points="1219.1,1864 981,2002.2 981.4,2277.2 1220.1,2414 1458.3,2275.7 1457.6,2000.7 "/>
<polygon class="st4" points="459.8,1292.4 156.8,1468.3 157.4,1818.3 461.1,1992.4 764.2,1816.4 763.4,1466.4 "/>
<polygon class="st4" points="643.6,277.1 275.6,490.8 276.3,915.8 645.1,1127.1 1013.2,913.4 1012.2,488.4 "/>
<polygon class="st4" points="1676.8,55.6 1243.9,307 1244.7,807 1678.6,1055.6 2111.6,804.2 2110.5,304.2 "/>
<polygon class="st4" points="2133.5,1260.7 2025.3,1323.6 2025.5,1448.6 2134,1510.7 2242.3,1447.9 2242,1322.9 "/>
</svg>
