<?xml version="1.0" encoding="utf-8"?>
<!-- Generator: Adobe Illustrator 26.3.1, SVG Export Plug-In . SVG Version: 6.00 Build 0)  -->
<svg version="1.1" id="Layer_1" xmlns="http://www.w3.org/2000/svg" xmlns:xlink="http://www.w3.org/1999/xlink" x="0px" y="0px"
	 viewBox="0 0 900 900" style="enable-background:new 0 0 2376 2500;" xml:space="preserve">
   <defs>
  <style>
    .selectors-cls-4 {
      stroke-width: 20px;
    }

    .selectors-cls-4,
    .selectors-cls-5 {
      fill: none;
      stroke-miterlimit: 10;
    }

    .selectors-cls-5 {
      stroke-width: 16px;
    }
    .primary-stroke{stroke:darkturquoise;}
    .primary-fill{fill:darkturquoise;}
    .accent-stroke{stroke:orangered;}
    .accent-fill{fill:orangered;}
    .tertiary-stroke{stroke:#b00050;}
    .tertiary-fill{fill:#b00050;}
  </style>
</defs>
<g>
  <line class="selectors-cls-4 primary-stroke" x1="372.6" y1="267.81" x2="477.41" y2="267.81" />
  <polygon class="selectors-cls-2 primary-fill" points="467.78 300.72 524.77 267.81 467.78 234.9 467.78 300.72" />
</g>
<rect class="selectors-cls-2 primary-fill" x="580.33" y="36.44" width="231.16" height="25.47" rx="12" ry="12" />
<rect class="selectors-cls-2 primary-fill" x="0" y="72.88" width="231.16" height="25.47" rx="12" ry="12" />
<rect class="selectors-cls-1 accent-fill" x="0" y="36.44" width="174.64" height="25.47" rx="12" ry="12" />
<rect class="selectors-cls-1 accent-fill" x="0" y="110.05" width="49.09" height="24" rx="12" ry="12" />
<rect class="selectors-cls-1 accent-fill" x="0" y="0" width="319.67" height="25.47" rx="12" ry="12" />
<rect class="selectors-cls-2 primary-fill" x="0" y="218.63" width="231.16" height="25.47" rx="12" ry="12" />
<rect class="selectors-cls-1 accent-fill" x="0" y="182.19" width="174.64" height="25.47" rx="12" ry="12" />
<rect class="selectors-cls-2 primary-fill" x="0" y="801.65" width="174.64" height="25.47" rx="12" ry="12" />
<rect class="selectors-cls-1 accent-fill" x="0" y="255.81" width="49.09" height="24" rx="12" ry="12" />
<rect class="selectors-cls-1 accent-fill" x="0" y="145.76" width="319.67" height="25.47" rx="12" ry="12" />
<rect class="selectors-cls-2 primary-fill" x="0" y="400.09" width="319.67" height="25.47" rx="12" ry="12" />
<rect class="selectors-cls-2 primary-fill" x="580.33" y="182.19" width="319.67" height="25.47" rx="12" ry="12" />
<rect class="selectors-cls-2 primary-fill" x="580.33" y="145.76" width="319.67" height="25.47" rx="12" ry="12" />
<rect class="selectors-cls-2 primary-fill" x="580.33" y="0" width="319.67" height="25.47" rx="12" ry="12" />
<rect class="selectors-cls-2 primary-fill" x="580.33" y="72.88" width="231.16" height="25.47" rx="12" ry="12" />
<rect class="selectors-cls-1 accent-fill" y="291.51" width="283.66" height="24" rx="12" ry="12" />
<rect class="selectors-cls-1 accent-fill" x="0" y="326.85" width="319.67" height="25.47" rx="12" ry="12" />
<rect class="selectors-cls-1 accent-fill" x="0" y="363.47" width="319.67" height="25.47" rx="12" ry="12" />
<rect class="selectors-cls-2 primary-fill" x="0" y="545.48" width="319.67" height="25.47" rx="12" ry="12" />
<rect class="selectors-cls-2 primary-fill" x="0" y="656.27" width="319.67" height="25.47" rx="12" ry="12" />
<rect class="selectors-cls-2 primary-fill" x="580.33" y="218.63" width="319.67" height="25.47" rx="12" ry="12" />
<rect class="selectors-cls-1 accent-fill" y="436.9" width="283.66" height="24" rx="12" ry="12" />
<rect class="selectors-cls-1 accent-fill" x="0" y="472.24" width="319.67" height="25.47" rx="12" ry="12" />
<rect class="selectors-cls-1 accent-fill" x="0" y="508.86" width="319.67" height="25.47" rx="12" ry="12" />
<rect class="selectors-cls-1 accent-fill" y="619.46" width="283.66" height="25.47" rx="12" ry="12" />
<rect class="selectors-cls-1 accent-fill" x="0" y="583.02" width="231.16" height="25.47" rx="12" ry="12" />
<rect class="selectors-cls-1 accent-fill" y="693.07" width="49.09" height="24" rx="12" ry="12" />
<rect class="selectors-cls-2 primary-fill" x="0" y="838.46" width="319.67" height="25.47" rx="12" ry="12" />
<rect class="selectors-cls-1 accent-fill" y="764.85" width="283.66" height="25.47" rx="12" ry="12" />
<rect class="selectors-cls-1 accent-fill" x="0" y="728.41" width="231.16" height="25.47" rx="12" ry="12" />
<rect class="selectors-cls-2 primary-fill" y="875.27" width="49.09" height="24" rx="12" ry="12" />
<rect class="selectors-cls-2 primary-fill" x="580.33" y="254.7" width="128.25" height="25.47" rx="12" ry="12" />
<rect class="selectors-cls-2 primary-fill" x="580.33" y="326.85" width="174.64" height="25.47" rx="12" ry="12" />
<rect class="selectors-cls-2 primary-fill" x="580.33" y="291.51" width="174.64" height="25.47" rx="12" ry="12" />
<rect class="selectors-cls-2 primary-fill" x="580.33" y="291.51" width="231.16" height="25.47" rx="12" ry="12" />
<rect class="selectors-cls-2 primary-fill" x="580.33" y="363.65" width="49.09" height="24" rx="12" ry="12" />
<rect class="selectors-cls-2 primary-fill" x="580.33" y="109.32" width="49.09" height="25.47" rx="12" ry="12" />
<circle class="selectors-cls-2 primary-fill" cx="675.95" cy="675.48" r="87.57" />
<circle class="selectors-cls-5 primary-stroke" cx="675.95" cy="675.48" r="214.58" />
<circle class="selectors-cls-3 tertiary-fill" cx="835.73" cy="532.32" r="39.8" />
</svg>
