<?xml version="1.0" encoding="UTF-8"?>
<svg id="logosandtypes_com" data-name="logosandtypes com" xmlns="http://www.w3.org/2000/svg" xmlns:xlink="http://www.w3.org/1999/xlink" viewBox="0 0 150 150">
  <defs>
    <style>
      .ng-st1 {
        fill: url(#linear-gradient-2);
      }

      .ng-st2 {
        fill: none;
      }

      .ng-st3 {
        fill: url(#linear-gradient);
      }
    </style>
    <linearGradient id="linear-gradient" x1="-211.7" y1="477.2" x2="-207.44" y2="479.22" gradientTransform="translate(5084.02 11503.76) scale(23.9 -23.91)" gradientUnits="userSpaceOnUse">
      <stop offset="0" stop-color="#e40035"/>
      <stop offset=".24" stop-color="#f60a48"/>
      <stop offset=".35" stop-color="#f20755"/>
      <stop offset=".49" stop-color="#dc087d"/>
      <stop offset=".74" stop-color="#9717e7"/>
      <stop offset="1" stop-color="#6c00f5"/>
    </linearGradient>
    <linearGradient id="linear-gradient-2" x1="-211.13" y1="480.28" x2="-208.38" y2="477.12" gradientTransform="translate(5084.02 11503.76) scale(23.9 -23.91)" gradientUnits="userSpaceOnUse">
      <stop offset="0" stop-color="#ff31d9"/>
      <stop offset="1" stop-color="#ff5be1" stop-opacity="0"/>
    </linearGradient>
  </defs>
  <path class="ng-st2" d="M0,0H150V150H0V0Z"/>
  <path class="ng-st3" d="M139.64,33.21l-4.65,69.05L90.49,11.71l49.15,21.49h0Zm-30.82,89.29l-33.62,18.13-33.62-18.13,6.84-15.66h53.57l6.84,15.66ZM75.2,46.08l17.62,40.47H57.57l17.62-40.47h0ZM15.36,102.25L10.75,33.21,59.91,11.71,15.37,102.26h0Z"/>
  <path class="ng-st1" d="M139.64,33.21l-4.65,69.05L90.49,11.71l49.15,21.49h0Zm-30.82,89.29l-33.62,18.13-33.62-18.13,6.84-15.66h53.57l6.84,15.66ZM75.2,46.08l17.62,40.47H57.57l17.62-40.47h0ZM15.36,102.25L10.75,33.21,59.91,11.71,15.37,102.26h0Z"/>
</svg>
