<?xml version="1.0" encoding="utf-8"?>
<!-- Generator: Adobe Illustrator 26.3.1, SVG Export Plug-In . SVG Version: 6.00 Build 0)  -->
<svg version="1.1" id="Layer_1" xmlns="http://www.w3.org/2000/svg" xmlns:xlink="http://www.w3.org/1999/xlink" x="0px" y="0px"
	 viewBox="0 0 2376 2500" style="enable-background:new 0 0 2376 2500;" xml:space="preserve">
<style type="text/css">
	.st0{display:none;fill:#E32286;}
	.st1{display:none;fill:url(#SVGID_1_);}
	.st2{display:none;fill:url(#SVGID_00000110471234314303152260000009471334332298675863_);}
	.st3{display:none;fill:url(#SVGID_00000065790062500096816360000006036039981395185538_);}
	.st4{fill:#00CED1;stroke:#00CED1;stroke-width:50;stroke-miterlimit:10;}
</style>
<path class="st0" d="M172.5,1567.3c-46.6-145.1-60-298.3-33.1-455.9C151,1046,169,983.3,188.7,919.7c0,0,123.6-405.7,541.9-591.1
	c0,0,144.2-76.1,361-81.5c0,0-29.6-28.7-48.4-41.2c-102.1-68.1-254.4-90.5-346.6,5.4c-27.8,28.7-51.1,60-77,88.7
	c-29.6,32.2-65.4,59.1-106.6,74.3c-35.8,13.4-71.7,10.7-108.4,17C367,397.6,328.5,411,298,435.2c-33.1,26.9-46.6,62.7-50.2,103.9
	c-3.6,32.2-2.7,65.4-4.5,97.6c-4.5,94.9-34.9,121.8-103,174.7c-28.7,21.4-52.9,50.1-70.8,80.6c-53.7,94.9,32.2,193.5,36.7,289.3
	c0.9,19.7-0.9,39.4-8.1,58.2c-7.2,20.6-21.5,34-33.1,51.1c-16.1,22.4-26.9,49.3-22.4,77s18.8,53.7,32.2,77.9
	c26,43,58.2,81.5,92.3,118.2C169,1563.7,170.7,1565.5,172.5,1567.3"/>
<linearGradient id="SVGID_1_" gradientUnits="userSpaceOnUse" x1="1115.4668" y1="1695.1459" x2="1238.7424" y2="1826.2894" gradientTransform="matrix(9.0411 0 0 -9.0411 -9698.3691 17541.8262)">
	<stop  offset="0" style="stop-color:#E01D84"/>
	<stop  offset="0.401" style="stop-color:#DF1D85"/>
	<stop  offset="0.77" style="stop-color:#932C87"/>
	<stop  offset="1" style="stop-color:#5D2F88"/>
</linearGradient>
<path class="st1" d="M1881.5,1911.2c206-89.6,293.8-244.5,293.8-244.5c192.6-262.4,127.2-539.2,127.2-539.2
	c-122.7,266.9-234.7,340.4-234.7,340.4c301.8-459.5,1.8-737.1,1.8-737.1c122.7,261.5-40.3,580.4-40.3,580.4
	c-137,288.4-331.4,391.4-331.4,391.4c216.8,40.3,376.2-105.7,376.2-105.7c-310.8,335.9-647.6,319.8-647.6,319.8
	c141.5,158.5,353.8,145.1,353.8,145.1c-277.7,65.4-538.3-26.9-752.4-205.1c-40.3-33.1-78.8-69-114.6-107.5c0,0-32.2-34-38.5-43
	l-0.9-0.9c-4.5,165.7,168.4,319.8,168.4,319.8c-216.8-89.6-316.2-283.9-316.2-283.9s-146-249-40.3-532.9s425.4-344.8,425.4-344.8
	c264.2,127.9,488.2,168.2,488.2,168.2c472,78.8,445.2-152.3,445.2-152.3c4.5-198.8-295.6-410.2-295.6-410.2
	C1214.2,72.4,730.5,328.6,730.5,328.6C312.3,514,188.7,919.7,188.7,919.7c-19.7,63.6-37.6,126.3-49.3,191.7
	c-45.7,266,23.3,517.7,172.9,741.6c232.9,347.5,610.9,467.5,610.9,467.5c559.8,189.9,942.3-89.6,942.3-89.6
	c352-241.8,422.8-521.3,422.8-521.3C2004.2,1931.8,1881.5,1911.2,1881.5,1911.2L1881.5,1911.2z M1444.4,604.4
	c26.9,0,48.4,21.5,48.4,48.4s-21.5,48.4-48.4,48.4s-48.4-21.5-48.4-48.4S1417.5,604.4,1444.4,604.4z"/>
<radialGradient id="SVGID_00000047018123117690991760000000548307854111373956_" cx="1250.5638" cy="1907.9762" r="120.4482" gradientTransform="matrix(9.0411 2.160822e-02 1.808219e-02 -7.5602 -9727.6631 15113.125)" gradientUnits="userSpaceOnUse">
	<stop  offset="0" style="stop-color:#E01D84"/>
	<stop  offset="0.139" style="stop-color:#DE1E85"/>
	<stop  offset="0.285" style="stop-color:#D62085"/>
	<stop  offset="0.434" style="stop-color:#C92386"/>
	<stop  offset="0.586" style="stop-color:#B72786"/>
	<stop  offset="0.739" style="stop-color:#9D2B87"/>
	<stop  offset="0.891" style="stop-color:#7C2E88"/>
	<stop  offset="1" style="stop-color:#5D2F88"/>
</radialGradient>
<path style="display:none;fill:url(#SVGID_00000047018123117690991760000000548307854111373956_);" d="M2043.6,878.5
	c4.5-198.8-295.6-410.2-295.6-410.2C1213.3,72.4,729.7,328.6,729.7,328.6C311.4,514,187.8,919.7,187.8,919.7
	c-24.2,69-45.7,174.7-45.7,174.7c-26,132.6-14.3,255.3-14.3,255.3c10.7,117.3,36.7,196.2,36.7,196.2
	c26.9,84.2,39.4,110.2,39.4,110.2c-0.9-2.7-5.4-22.4-5.4-22.4s-37.6-180.9-2.7-354.7c0,0,30.5-180.9,154.1-320.7
	c0,0,200.6-285.7,574.1-173.8c0,0,80.6,28.7,108.4,43c27.8,13.4,76.1,34,76.1,34c264.2,128.1,488.1,168.4,488.1,168.4
	C2070.5,1109.6,2043.6,878.5,2043.6,878.5z M1444.4,702.1c-26.9,0-48.4-21.5-48.4-48.4s21.5-48.4,48.4-48.4s48.4,21.5,48.4,48.4
	S1471.3,702.1,1444.4,702.1z"/>
<linearGradient id="SVGID_00000122712536715717340240000012576435719178139282_" gradientUnits="userSpaceOnUse" x1="1144.8962" y1="1878.7793" x2="1198.5021" y2="1878.7793" gradientTransform="matrix(9.0411 0 0 -9.0411 -9698.3691 17541.8262)">
	<stop  offset="0" style="stop-color:#E01D84"/>
	<stop  offset="0.238" style="stop-color:#DA1E85"/>
	<stop  offset="0.658" style="stop-color:#C72085"/>
	<stop  offset="0.999" style="stop-color:#B52284"/>
</linearGradient>
<path style="display:none;fill:url(#SVGID_00000122712536715717340240000012576435719178139282_);" d="M1138.1,518.5l-305.4-94.9
	c-1.8,0-10.7-4.5-26.9,0c0,0-180,45.7-148.7,144.2c0,0,18.8,61.8,69.9,121.8l335.9-16.1L1138.1,518.5z"/>
<polygon class="st4" points="1901.8,1681.5 1728.7,1782 1729,1982 1902.5,2081.5 2075.7,1980.9 2075.3,1780.9 "/>
<polygon class="st4" points="1219.1,1864 981,2002.2 981.4,2277.2 1220.1,2414 1458.3,2275.7 1457.6,2000.7 "/>
<polygon class="st4" points="459.8,1292.4 156.8,1468.3 157.4,1818.3 461.1,1992.4 764.2,1816.4 763.4,1466.4 "/>
<polygon class="st4" points="643.6,277.1 275.6,490.8 276.3,915.8 645.1,1127.1 1013.2,913.4 1012.2,488.4 "/>
<polygon class="st4" points="1676.8,55.6 1243.9,307 1244.7,807 1678.6,1055.6 2111.6,804.2 2110.5,304.2 "/>
<polygon class="st4" points="2133.5,1260.7 2025.3,1323.6 2025.5,1448.6 2134,1510.7 2242.3,1447.9 2242,1322.9 "/>
</svg>
