<?xml version="1.0" encoding="utf-8"?>
<!-- Generator: Adobe Illustrator 26.3.1, SVG Export Plug-In . SVG Version: 6.00 Build 0)  -->
<svg version="1.1" id="Layer_1" xmlns="http://www.w3.org/2000/svg" xmlns:xlink="http://www.w3.org/1999/xlink" x="0px" y="0px"
	 viewBox="0 0 900 900" style="enable-background:new 0 0 2376 2500;" xml:space="preserve">
   <defs>
  <style>
    .reusable-cls-1,
    .reusable-cls-2,
    .reusable-cls-3,
    .reusable-cls-4,
    .reusable-cls-5,
    .reusable-cls-6,
    .reusable-cls-7,
    .reusable-cls-8,
    .reusable-cls-9 {
      stroke-miterlimit: 10;
    }

    .reusable-cls-1,
    .reusable-cls-2,
    .reusable-cls-3,
    .reusable-cls-4,
    .reusable-cls-6,
    .reusable-cls-7,
    .reusable-cls-8,
    .reusable-cls-9 {
      fill: none;
    }

    .reusable-cls-1,
    .reusable-cls-2,
    .reusable-cls-6 {
      stroke-width: 12px;
    }

    .reusable-cls-2 {
      stroke-dasharray: 0 0 25.07 19.28;
    }

    .reusable-cls-3 {
      stroke-width: 24px;
    }

    .reusable-cls-4 {
      stroke-dasharray: 0 26;
      stroke-width: 8px;
    }

    .reusable-cls-5,
    .reusable-cls-7,
    .reusable-cls-8,
    .reusable-cls-9 {
      stroke-width: 16px;
    }

    .reusable-cls-6 {
      stroke-dasharray: 0 0 24.64 24.64;
    }
    .primary-stroke{stroke:darkturquoise;}
    .primary-fill{fill:darkturquoise;}
    .accent-stroke{stroke:orangered;}
    .accent-fill{fill:orangered;}
    .tertiary-stroke{stroke:#b00050;}
    .tertiary-fill{fill:#b00050;}
  </style>
</defs>
<g>
  <line class="reusable-cls-1 primary-stroke" x1="547.08" y1="373.24" x2="553.58" y2="384.49" />
  <line class="reusable-cls-2 primary-stroke" x1="563.22" y1="401.19" x2="780.12" y2="776.91" />
  <line class="reusable-cls-1 primary-stroke" x1="784.94" y1="785.26" x2="791.44" y2="796.52" />
</g>
<g>
  <line class="reusable-cls-1 primary-stroke" x1="122.3" y1="801.18" x2="128.79" y2="789.92" />
  <line class="reusable-cls-6 primary-stroke" x1="141.11" y1="768.58" x2="356.58" y2="395.17" />
  <line class="reusable-cls-1 primary-stroke" x1="362.73" y1="384.5" x2="369.23" y2="373.24" />
</g>
<g>
  <line class="reusable-cls-7 tertiary-stroke" x1="221.32" y1="807.43" x2="257.1" y2="869.4" />
  <polygon class="reusable-cls-11 tertiary-fill" points="232.87 875.3 274.33 899.23 274.33 851.37 232.87 875.3" />
</g>
<g>
  <line class="reusable-cls-7 tertiary-stroke" x1="685.75" y1="805.7" x2="648.98" y2="869.4" />
  <polygon class="reusable-cls-11 tertiary-fill" points="631.75 851.37 631.76 899.23 673.21 875.3 631.75 851.37" />
</g>
<polygon class="reusable-cls-5 primary-stroke primary-fill" points="640.87 663.42 640.87 773.43 736.14 828.44 831.42 773.43 831.42 663.42 736.14 608.41 640.87 663.42" />
<polygon class="reusable-cls-5 primary-stroke primary-fill" points="74.66 663.42 74.66 773.43 169.94 828.44 265.21 773.43 265.21 663.42 169.94 608.41 74.66 663.42" />
<polygon class="reusable-cls-3 primary-stroke" points="280.31 116.54 280.31 321.9 458.16 424.58 636 321.9 636 116.54 458.16 13.86 280.31 116.54" />
<g>
  <line class="reusable-cls-8 accent-stroke" x1="905.4" y1="424.58" x2="804.95" y2="599.13" />
  <polygon class="reusable-cls-10 accent-fill" points="787.7 581.12 787.77 628.98 829.19 604.99 787.7 581.12" />
</g>
<g>
  <line class="reusable-cls-8 accent-stroke" x1="6.93" y1="436.11" x2="101.43" y2="599.71" />
  <polygon class="reusable-cls-10 accent-fill" points="77.2 605.62 118.66 629.54 118.65 581.67 77.2 605.62" />
</g>
<line class="reusable-cls-4 primary-stroke" x1="458.16" y1="424.58" x2="636" y2="321.9" />
<line class="reusable-cls-4 primary-stroke" x1="280.31" y1="321.9" x2="458.16" y2="424.58" />
<line class="reusable-cls-9 primary-stroke" x1="736.14" y1="608.41" x2="831.42" y2="663.42" />
<line class="reusable-cls-9 primary-stroke" x1="169.94" y1="608.41" x2="74.66" y2="663.42" />

</svg>
